<?xml version="1.0" encoding="utf-8"?>
<!-- Generator: Adobe Illustrator 24.0.0, SVG Export Plug-In . SVG Version: 6.00 Build 0)  -->
<svg version="1.1" id="Layer_1" xmlns="http://www.w3.org/2000/svg" xmlns:xlink="http://www.w3.org/1999/xlink" x="0px" y="0px"
	 viewBox="0 0 3000 2000" style="enable-background:new 0 0 3000 2000;" xml:space="preserve">
<g>
	<rect style="fill:#FFFFFF;" width="3000" height="2000"/>
	<path style="fill:#EBF3FA;" d="M371.96,1803.4c0,0-516.81-793.13,31.87-1010.05c138.21-54.64,186.42-819.6,800.32-437.12
		c244.14,152.11,595.67-31.96,932.32,68.64c309.17,92.4,316.28,358.92,277.19,454.87c-42.71,104.84,127.62,230.19,302.06,316.28
		c273.63,135.04,72.42,609.62-186.09,611.89C2271.14,1810.19,371.96,1803.4,371.96,1803.4z"/>
	<g>
		<g>
			<path style="fill:#EBF2F9;" d="M2265.51,1805.44c0,0,242.39-5.77,345.97-152.68c187.64-266.14,103.08-499.53-230.98-482.16
				c-373.71,19.43-327.62-805.58-974.7-408.37c-140.51,86.25-453.23-94.89-578.17,282.51c-29.71,89.74-252.82,95.99-397.02,167.96
				c-226.19,112.89-162.31,594.62,51.37,596.52C695.66,1811.11,2265.51,1805.44,2265.51,1805.44z"/>
			<path style="fill:#D2E4FF;" d="M1129.43,569.19h-11.6l-2.59-151.96L607.9,264.4L390.2,413.18l7.95-2.87
				c-6.87,0-12.49,5.62-12.49,12.49v72.85c0,6.87,5.62,12.49,12.49,12.49H504.3c6.87,0,12.49-5.62,12.49-12.49v-29.14h70.77v1340.46
				h83.26V466.51h342.48l95.48,102.68h-19.59c-6.87,0-12.49,5.62-12.49,12.49v12.49c0,6.87,5.62,12.49,12.49,12.49h40.24
				c6.87,0,12.49-5.62,12.49-12.49v-12.49C1141.92,574.81,1136.3,569.19,1129.43,569.19z M516.6,420.72
				c-1-5.89-6.14-10.41-12.3-10.41h-99.64l204.45-137.94l492.45,148.35H516.6z M1023.25,466.51l85.19,1.59l2.1,92.29L1023.25,466.51
				z"/>
			<path style="fill:#D2E4FF;" d="M2594.57,645.77l5.87,2.35l-149.75-102.43l-348.01,104.83l-1.78,104.24h-7.96
				c-4.71,0-8.57,3.86-8.57,8.57v8.57c0,4.71,3.86,8.57,8.57,8.57h27.6c4.71,0,8.57-3.85,8.57-8.57v-8.57
				c0-4.71-3.85-8.57-8.57-8.57h-13.43l65.49-70.44h234.93v919.48h57.11V684.32h48.54v19.99c0,4.71,3.85,8.57,8.57,8.57h72.82
				c4.71,0,8.57-3.85,8.57-8.57v-49.97C2603.14,649.62,2599.28,645.77,2594.57,645.77z M2105.91,748.72l1.86-64.4h58.01
				L2105.91,748.72z M2521.75,645.77c-4.22,0-7.75,3.1-8.44,7.14h-401.25l337.8-101.76l140.24,94.62H2521.75z"/>
			<g>
				<rect x="1425.19" y="313.06" style="fill:#D2E4FF;" width="480.47" height="1495.14"/>
				<g>
					<rect x="1425.19" y="519.36" style="opacity:0.5;fill:#AED3FF;" width="347.77" height="219.04"/>
					<rect x="1425.19" y="920.45" style="opacity:0.5;fill:#AED3FF;" width="347.77" height="219.04"/>
					<rect x="1425.19" y="1316.36" style="opacity:0.5;fill:#AED3FF;" width="347.77" height="219.04"/>
				</g>
				<polygon style="fill:#AED3FF;" points="2504.63,1534 2439.79,1534 2439.79,1331.45 1905.66,1331.45 1905.66,313.06 
					1772.96,313.06 1772.96,1809.04 1905.66,1809.04 1905.66,1808.2 2439.79,1808.2 2439.79,1808.2 2504.63,1808.2 				"/>
			</g>
			<path style="fill:#D2E4FF;" d="M1277.49,731.33v-8.07h-17.66V670h-14.62v53.26h-37.03V670h-14.62v53.26h-40.26V670h-14.62v53.26
				h-37.03V670h-14.62v53.26h-19.37v8.07h19.37v25.93h-19.37v8.07h19.37v25.93h-19.37v8.07h19.37v25.93h-19.37v8.07h19.37v25.93
				h-19.37v8.07h19.37v25.93h-19.37v8.07h19.37v20.98h-19.37v8.07h19.37v25.93h-19.37v8.07h19.37v25.93h-19.37v8.07h19.37v25.93
				h-19.37v8.07h19.37v25.93h-19.37v8.07h19.37v25.93h-19.37v8.07h19.37v24.75h-19.37v8.07h19.37v25.93h-19.37v8.07h19.37v25.93
				h-19.37v8.07h19.37v25.93h-19.37v8.07h19.37v25.93h-19.37v8.07h19.37v25.93h-19.37v8.07h19.37v20.98h-19.37v8.07h19.37v25.93
				h-19.37v8.07h19.37v25.93h-19.37v8.07h19.37v25.93h-19.37v8.07h19.37v25.93h-19.37v8.07h19.37v25.93h-19.37v8.07h19.37v23.13
				h-19.37v8.07h19.37v25.93h-19.37v8.07h19.37v25.93h-19.37v8.07h19.37v25.93h-19.37v8.07h19.37v25.93h-19.37v8.07h19.37v25.93
				h-19.37v8.07h19.37v20.98h-19.37v8.07h19.37v25.93h-19.37v8.07h19.37v25.93h-19.37v8.07h209.81v-8.07h-17.66v-25.93h17.66v-8.07
				h-17.66v-25.93h17.66v-8.07h-17.66v-20.98h17.66v-8.07h-17.66v-25.93h17.66v-8.07h-17.66v-25.93h17.66v-8.07h-17.66v-25.93h17.66
				v-8.07h-17.66v-25.93h17.66v-8.07h-17.66v-25.93h17.66v-8.07h-17.66v-23.13h17.66v-8.07h-17.66v-25.93h17.66v-8.07h-17.66v-25.93
				h17.66v-8.07h-17.66v-25.93h17.66v-8.07h-17.66v-25.93h17.66v-8.07h-17.66v-25.93h17.66v-8.07h-17.66v-20.98h17.66v-8.07h-17.66
				v-25.93h17.66v-8.07h-17.66v-25.93h17.66v-8.07h-17.66v-25.93h17.66v-8.07h-17.66v-25.93h17.66v-8.07h-17.66v-25.93h17.66v-8.07
				h-17.66v-24.75h17.66v-8.07h-17.66v-25.93h17.66v-8.07h-17.66v-25.93h17.66v-8.07h-17.66v-25.93h17.66v-8.07h-17.66v-25.93h17.66
				v-8.07h-17.66v-25.93h17.66v-8.07h-17.66v-20.98h17.66v-8.07h-17.66v-25.93h17.66v-8.07h-17.66v-25.93h17.66v-8.07h-17.66v-25.93
				h17.66v-8.07h-17.66v-25.93h17.66v-8.07h-17.66v-25.93H1277.49z M1193.56,731.33v25.93h-40.26v-25.93H1193.56z M1153.31,1758.46
				v-25.93h40.26v25.93H1153.31z M1193.56,1766.53v25.93h-40.26v-25.93H1193.56z M1153.31,1724.46v-20.98h40.26v20.98H1153.31z
				 M1153.31,1695.41v-25.93h40.26v25.93H1153.31z M1153.31,1661.4v-25.93h40.26v25.93H1153.31z M1153.31,1627.4v-25.93h40.26v25.93
				H1153.31z M1153.31,1593.4v-25.93h40.26v25.93H1153.31z M1153.31,1559.4v-25.93h40.26v25.93H1153.31z M1153.31,1525.4v-23.13
				h40.26v23.13H1153.31z M1153.31,1494.2v-25.93h40.26v25.93H1153.31z M1153.31,1460.2v-25.93h40.26v25.93H1153.31z
				 M1153.31,1426.2v-25.93h40.26v25.93H1153.31z M1153.31,1392.2v-25.93h40.26v25.93H1153.31z M1153.31,1358.2v-25.93h40.26v25.93
				H1153.31z M1153.31,1324.2v-20.98h40.26v20.98H1153.31z M1153.31,1295.14v-25.93h40.26v25.93H1153.31z M1153.31,1261.14v-25.93
				h40.26v25.93H1153.31z M1153.31,1227.14v-25.93h40.26v25.93H1153.31z M1153.31,1193.14v-25.93h40.26v25.93H1153.31z
				 M1153.31,1159.14v-25.93h40.26v25.93H1153.31z M1153.31,1125.14v-24.75h40.26v24.75H1153.31z M1153.31,1092.32v-25.93h40.26
				v25.93H1153.31z M1153.31,1058.32v-25.93h40.26v25.93H1153.31z M1153.31,1024.32v-25.93h40.26v25.93H1153.31z M1153.31,990.32
				v-25.93h40.26v25.93H1153.31z M1153.31,956.32v-25.93h40.26v25.93H1153.31z M1153.31,922.32v-20.98h40.26v20.98H1153.31z
				 M1153.31,893.27v-25.93h40.26v25.93H1153.31z M1153.31,859.27v-25.93h40.26v25.93H1153.31z M1153.31,825.27v-25.93h40.26v25.93
				H1153.31z M1153.31,791.27v-25.93h40.26v25.93H1153.31z M1101.66,731.33h37.03v25.93h-37.03V731.33z M1101.66,765.34h37.03v25.93
				h-37.03V765.34z M1101.66,799.34h37.03v25.93h-37.03V799.34z M1101.66,833.34h37.03v25.93h-37.03V833.34z M1101.66,867.34h37.03
				v25.93h-37.03V867.34z M1101.66,901.34h37.03v20.98h-37.03V901.34z M1101.66,930.39h37.03v25.93h-37.03V930.39z M1101.66,964.39
				h37.03v25.93h-37.03V964.39z M1101.66,998.39h37.03v25.93h-37.03V998.39z M1101.66,1032.39h37.03v25.93h-37.03V1032.39z
				 M1101.66,1066.39h37.03v25.93h-37.03V1066.39z M1101.66,1100.39h37.03v24.75h-37.03V1100.39z M1101.66,1133.21h37.03v25.93
				h-37.03V1133.21z M1101.66,1167.21h37.03v25.93h-37.03V1167.21z M1101.66,1201.21h37.03v25.93h-37.03V1201.21z M1101.66,1235.21
				h37.03v25.93h-37.03V1235.21z M1101.66,1269.21h37.03v25.93h-37.03V1269.21z M1101.66,1303.21h37.03v20.98h-37.03V1303.21z
				 M1101.66,1332.27h37.03v25.93h-37.03V1332.27z M1101.66,1366.27h37.03v25.93h-37.03V1366.27z M1101.66,1400.27h37.03v25.93
				h-37.03V1400.27z M1101.66,1434.27h37.03v25.93h-37.03V1434.27z M1101.66,1468.27h37.03v25.93h-37.03V1468.27z M1101.66,1502.27
				h37.03v23.13h-37.03V1502.27z M1101.66,1533.47h37.03v25.93h-37.03V1533.47z M1101.66,1567.47h37.03v25.93h-37.03V1567.47z
				 M1101.66,1601.47h37.03v25.93h-37.03V1601.47z M1101.66,1635.47h37.03v25.93h-37.03V1635.47z M1101.66,1669.47h37.03v25.93
				h-37.03V1669.47z M1101.66,1703.48h37.03v20.98h-37.03V1703.48z M1101.66,1732.53h37.03v25.93h-37.03V1732.53z M1101.66,1766.53
				h37.03v25.93h-37.03V1766.53z M1245.21,1792.46h-37.03v-25.93h37.03V1792.46z M1245.21,1758.46h-37.03v-25.93h37.03V1758.46z
				 M1245.21,1724.46h-37.03v-20.98h37.03V1724.46z M1245.21,1695.41h-37.03v-25.93h37.03V1695.41z M1245.21,1661.4h-37.03v-25.93
				h37.03V1661.4z M1245.21,1627.4h-37.03v-25.93h37.03V1627.4z M1245.21,1593.4h-37.03v-25.93h37.03V1593.4z M1245.21,1559.4
				h-37.03v-25.93h37.03V1559.4z M1245.21,1525.4h-37.03v-23.13h37.03V1525.4z M1245.21,1494.2h-37.03v-25.93h37.03V1494.2z
				 M1245.21,1460.2h-37.03v-25.93h37.03V1460.2z M1245.21,1426.2h-37.03v-25.93h37.03V1426.2z M1245.21,1392.2h-37.03v-25.93h37.03
				V1392.2z M1245.21,1358.2h-37.03v-25.93h37.03V1358.2z M1245.21,1324.2h-37.03v-20.98h37.03V1324.2z M1245.21,1295.14h-37.03
				v-25.93h37.03V1295.14z M1245.21,1261.14h-37.03v-25.93h37.03V1261.14z M1245.21,1227.14h-37.03v-25.93h37.03V1227.14z
				 M1245.21,1193.14h-37.03v-25.93h37.03V1193.14z M1245.21,1159.14h-37.03v-25.93h37.03V1159.14z M1245.21,1125.14h-37.03v-24.75
				h37.03V1125.14z M1245.21,1092.32h-37.03v-25.93h37.03V1092.32z M1245.21,1058.32h-37.03v-25.93h37.03V1058.32z M1245.21,1024.32
				h-37.03v-25.93h37.03V1024.32z M1245.21,990.32h-37.03v-25.93h37.03V990.32z M1245.21,956.32h-37.03v-25.93h37.03V956.32z
				 M1245.21,922.32h-37.03v-20.98h37.03V922.32z M1245.21,893.27h-37.03v-25.93h37.03V893.27z M1245.21,859.27h-37.03v-25.93h37.03
				V859.27z M1245.21,825.27h-37.03v-25.93h37.03V825.27z M1245.21,791.27h-37.03v-25.93h37.03V791.27z M1245.21,757.27h-37.03
				v-25.93h37.03V757.27z"/>
			<g>
				<rect x="1450.06" y="238.57" style="fill:#D2E4FF;" width="5.17" height="92.08"/>
				<rect x="1736.65" y="238.57" style="fill:#D2E4FF;" width="5.17" height="92.08"/>
				<rect x="1486.27" y="238.57" style="fill:#D2E4FF;" width="5.17" height="92.08"/>
				<rect x="1762.51" y="238.57" style="fill:#D2E4FF;" width="5.17" height="92.08"/>
			</g>
		</g>
		<g>
			<g>
				<path style="fill:#233862;" d="M1905.59,1803.95c0,0,0.99-21.41,6.73-32.89s51.67-3.59,51.67-3.59s10.59,19.15,9.15,36.38
					L1905.59,1803.95z"/>
				<path style="fill:#233862;" d="M1782.34,1803.95c0,0,0.99-21.41,6.73-32.89s51.67-3.59,51.67-3.59s10.59,19.15,9.15,36.38
					L1782.34,1803.95z"/>
				<path style="fill:#D9935C;" d="M1935.36,895.47c-5.74,4.15-57.67,31.26-57.67,31.26l-54.76-39.04c0,0,16.63-2.42,17.07-2.55
					c4.94-1.38,4.72-14.63,5.34-28.74c0.1-2.18,0.22-4.37,0.38-6.55l53.62-1.95l0.04,0.67c0.04,0.68,0.1,1.39,0.15,2.13l0.11,1.53
					c0.03,0.53,0.08,1.05,0.12,1.6c0.97,12.4,3.04,29.92,7,31.96C1909.01,886.96,1924.27,886.78,1935.36,895.47z"/>
				<path style="fill:#CB7D45;" d="M1899.76,853.84c-4.42,8.85-14.27,24.25-28.88,23.75c-13.95-0.5-21.9-13.18-25.53-21.18
					c0.1-2.18,0.22-4.37,0.38-6.55l53.62-1.95l0.04,0.67l0.15,2.13l0.11,1.53C1899.67,852.76,1899.72,853.29,1899.76,853.84z"/>
				<path style="fill:#2B478B;" d="M1839.34,730.31c0,0,25.86-25.75,56.38,0.52C1895.72,730.83,1877.58,727.06,1839.34,730.31z"/>
				<path style="fill:#B64C41;" d="M1829.74,825.04c0,0-8.19-16.96-13.24-36.71c-3.61-14.1-0.31-67.61,53.49-63.97
					c0,0,15.57,0.36,30.84,9.09c12.14,6.94,30.08,22.54,14.9,70.15l-3.67,15.98L1829.74,825.04z"/>
				<path style="fill:#D9935C;" d="M1905,847.52c-13.89,13.28-31.14,30.97-68.33-1.75c-7.28-6.4-6.78-16.24-7.21-30.38
					c-0.51-16.73-4.54-26.98-2.67-36.62c2.22-11.54,12.09-16.75,32.57-18.54c37.6-3.26,56.61,5.21,54.08,23.87
					C1907.81,825.74,1919.12,834.01,1905,847.52z"/>
				<path style="fill:#B64C41;" d="M1874.36,759.54c0,0,22.29-0.47,27.38,6.98c5.09,7.45,5.79,15.79,8.36,19.99
					c2.57,4.2,2.14,8.92,2.14,8.92l4.95-33.27l-30.17-6L1874.36,759.54z"/>
				<path style="fill:#9ED9F0;" d="M2004.36,943.07c0,0-9.52,28.05-48.11,33.19c-1.04,0.14-2.12,0.26-3.21,0.37h-157.17
					c0,0-0.29-0.09-0.84-0.26c-6.1-1.94-43.65-14.8-47.6-38.86c0,0,19.74-40.54,34.81-45.57c4.39-1.47,10.47-2.57,16.87-3.4
					c6.53-0.84,13.41-1.4,19.18-1.77c7.94-0.5,13.78-0.62,13.78-0.62s12.24,24.81,42.03,24.45c29.79-0.36,36.69-24.08,36.69-24.08
					s8.36,0.24,19.47,1.44c6.13,0.66,13.08,1.6,19.94,2.97c11.62,2.31,22.93,5.8,29.4,11.06
					C1996.83,915.97,2004.36,943.07,2004.36,943.07z"/>
				<path style="fill:#2B478B;" d="M1966.98,1160.03c-1.67-9.29-4.16-23.43-6.11-35.87c0.01-0.17,5.83-70.23,7.98-82.06
					c2.15-11.84-12.48-76.27-12.48-76.27c-3.4-9.86-9.17-12.87-13.6-12.87l7.44-62.04c-6.86-1.37-13.81-2.31-19.94-2.97l-3.56,65.01
					l-0.05,0.94c-8.15,0.45-18.31,1-27.77,1.42c-9.46,0.43-18.23,0.74-23.62,0.74c-10.97,0-36.14-1.26-52.85-2.17l-0.07-0.93
					l-4.04-66.19c-5.77,0.37-12.65,0.93-19.18,1.77l7.1,64.43v0.01c-4.68,0-10.07,8.31-10.81,12.93l-0.72,20.16
					c-3.54,10.15-10.87,32.69-12.09,48.51c-1.61,20.92,7.13,93.69,7.19,94.19c-0.32,8.68-0.93,19.76-2.12,30.49
					c-6.57,17.79-34.58,100.54-31.72,211.81c2.66,103.87,4.23,281.35,16.47,367.52c1.99,13.99,4.26,25.57,6.86,34.04
					c1.31,4.27,5,7.36,9.43,7.98c14.03,1.95,45.67,5.53,59.28,0.58c6.52-2.38,11.2-38.6,14.5-85.3c3.17-44.77,5.07-99.18,6.13-142.6
					c0.01,0,0.01-0.01,0.01-0.02c0.85-34.62,1.17-62.25,1.17-72.48c0-23.14,5.47-91.05,7.28-130.99c0.05-1.13,1.7-1.14,1.78-0.02
					c0,0.01,0,0.01,0,0.01c2.74,47.42,12.32,119.33,12.48,135.3c0.36,38.75-1.9,287.73,15.04,296.1
					c12.95,6.39,43.47,1.56,58.05-0.41c5.27-0.71,9.61-4.47,11.09-9.58c18.22-62.65,19.83-280.33,22.9-400.12
					C2001.22,1261.35,1974.04,1179.36,1966.98,1160.03z"/>
				<path style="fill:#D9935C;" d="M1824.23,1204.83c-5.38,4.31-22.96,2.51-29.77-3.23c-6.83-5.75-20.45-3.95-23.68-6.1
					c-0.23-0.15-63.7-75.36-70.57-107.01c-6.94-31.94,36.99-119.83,49.42-143.8c9.2,19.44,39.86,29.94,45.33,31.67
					c0.55,0.17,0.84,0.26,0.84,0.26h1.7c-10.34,27.97-41.27,78.31-53.19,97.28c-2.96,4.72-3.34,10.61-0.99,15.67
					c15.31,32.82,30.28,60.51,36.84,79.69c1.3,2.13,4.1,5.94,7.48,5.43c4.67-0.72,19.74-3.95,27.28,7.17
					C1822.45,1192.99,1829.62,1200.53,1824.23,1204.83z"/>
				<g>
					<path style="fill:#FFA412;" d="M1920.85,731.06c0,0-4.14-5.62-11.54-11.91c-1.17-1.01-2.44-2.04-3.78-3.05
						c-13.63-10.37-35.44-20.49-61.73-9.52c-7.12,2.97-13.05,7-17.97,11.68c-1.16,1.1-2.27,2.23-3.31,3.4
						c-22.8,25.29-20.87,64.96-20.87,64.96l131.54-1.41C1933.62,748.49,1920.85,731.06,1920.85,731.06z"/>
					<path style="fill:#E27F2B;" d="M1896.24,785.6c-0.37-5.53-2.89-50.92,13.06-66.44c-1.17-1.02-0.89-0.84-2.24-1.86
						c-17,17.85-18.09,62.54-18.03,68.38l-42.05,0.45c-1.25-32.22-19.03-64.29-21.16-67.87c-1.16,1.1-1.39,1.32-2.43,2.49
						c3.09,5.43,14.69,36.49,15.8,65.47l-37.55,0.4c0,0,35.03,9.06,61.42,8.73c26.39-0.33,70.12-10.14,70.12-10.14L1896.24,785.6z"
						/>
				</g>
				<path style="fill:#B64C41;" d="M1829.21,959.75c-13.46,25.84-51.67,30.68-51.67,30.68c12.38-30.14-12.56-39.65-27.99-70.51
					c-15.43-30.86,11.84-51.32,11.84-51.32c-16.87,3.23-20.1,25.84-20.1,25.84c-1.43-15.07,11.13-40.54,50.96-45.57
					c29.16-3.68,36.2-13.51,37.88-18.52c0.66,6.49,2.23,11.57,6.59,15.4c3.08,2.71,6.03,5.07,8.84,7.13
					c-0.07,1.17-0.12,2.35-0.17,3.51c-0.17,3.97-0.28,7.88-0.46,11.46c-5.21,6.21-5.06,12.82-4.18,16.98
					c0.55,2.58,1.38,4.22,1.38,4.22c4.18,5.8,6.3,11.51,6.91,17.21C1850.89,923.34,1839.3,940.38,1829.21,959.75z"/>
				<path style="fill:#233862;" d="M1966.67,1158.34l-5.81-34.18c-28.3,10.5-55.06,15.08-78.69,16.34
					c-2.78-5.13-7.85-8.89-14.01-9.78l-20.87-3.02c-8.24-1.19-16,3.1-19.62,10.1c-20.05-3.1-33.58-7.65-37.87-9.21l-0.01,0.18
					l-2.08,30.01v0.08c12.05,3.21,23.62,5.7,34.67,7.6l-0.62,4.18c-1.53,10.38,5.63,20.04,16,21.6l23.13,3.47
					c11.03,1.65,21.12-6.5,21.81-17.63l0.4-6.44C1927.22,1171.4,1956.52,1162.13,1966.67,1158.34z"/>
				<path style="fill:#D9935C;" d="M2051.25,1088.49c-6.88,31.65-70.35,106.86-70.57,107.01c-0.55,0.37-1.41,0.62-2.49,0.82
					c-0.04,0.01-0.08,0.01-0.12,0.02c-5.24,0.9-15.47,0.53-21.08,5.26c-6.81,5.74-24.4,7.53-29.79,3.23
					c-5.38-4.31,1.8-11.84,9.33-22.97c7.54-11.12,22.61-7.89,27.27-7.17c2.78,0.42,5.18-2.08,6.65-4.17
					c0.03-0.04,0.06-0.08,0.09-0.12c0.28-0.41,0.54-0.8,0.74-1.14c6.42-18.76,20.87-45.63,35.81-77.51
					c2.99-6.37,2.55-13.84-1.18-19.82c-9.98-15.94-30.24-49.07-43.27-75.64c-1.52-7.69-3.04-14.91-4.21-20.38
					c28.63-4.61,40.49-22.02,44.32-29.45C2016.29,972.72,2058.03,1057.29,2051.25,1088.49z"/>
			</g>
			<g id="P297LW_1_">
				<path style="fill:#FFA412;" d="M2196.08,1079.69c11.36,34.78,73.28,94.9,81.84,100.89c0,0,14.41-24.01,11.53-37.46
					c-2.35-10.98-26.46-50.11-34.71-69.34c-0.43-1-0.82-1.95-1.15-2.83c-1.13-2.95-1.73-5.23-1.59-6.59
					c0.41-4.18,13.54-14.34,28.81-26.39c19.83-15.67,43.27-34.53,47.07-47.56c6.72-23.05,30.01-114.33,30.01-114.33
					s-57.87,12.51-74.2,26.92c-16.33,14.41-86.44,134.47-89.32,165.2C2194.04,1071.55,2194.68,1075.43,2196.08,1079.69z"/>
				<path style="fill:#D9935C;" d="M2196.08,1079.69c11.36,34.78,73.28,94.9,81.84,100.89c0,0,14.41-24.01,11.53-37.46
					c-2.48-11.55-29.03-54.25-35.86-72.17C2243.3,1069.16,2219.14,1066.97,2196.08,1079.69z"/>
				<path style="fill:#D9935C;" d="M2357.86,868.06l0.04,7.09c0,0-1.93,22.17,25.37,25.4c27.3,3.25,47.85-6.66,47.11-23.76
					c-2.46-13.25-5.03-24.33-5.22-35.29c-0.07-4.07,0.21-8.39,0.97-13.27l-52.89-1.06l-15.58,2.55L2357.86,868.06z"/>
				<path style="fill:#CB7D45;" d="M2357.66,829.71l0.2,38.34c5.62,2.61,11.96,4.21,19.07,4.21c24.31,0,40.02-17.83,48.24-30.76
					c-0.07-4.07,0.21-8.39,0.97-13.27l-52.89-1.06L2357.66,829.71z"/>
				<path style="fill:#233862;" d="M2404.48,1808.01c0,0,2.57-20,8.51-31.89c5.95-11.89,43.78-4.32,43.78-4.32s7.57,6.49,9.19,36.75
					L2404.48,1808.01z"/>
				<path style="fill:#233862;" d="M2275.58,1807.95c8.89-5.43,3.83-45.91,3.83-45.91s-41.43-33.14-47.12-7.77
					c-5.7,25.37-39.36,36.77-58.52,39.87c-13.23,2.14-17.32,9.47-18.59,13.8H2275.58z"/>
				<path style="fill:#2B478B;" d="M2361.38,1509.01c-1.69,9.29-2.76,16.91-3.04,22.38c-3.85,75.12-63.23,246.87-73.85,250.88
					c-16.43,6.2-42.31-6.98-55.85-11.29c-5.61-1.79-9.4-7.45-8.15-13.19c29.41-135.19,40.21-329.85,44.15-445.1
					c1.99-58.05,11.95-98.15,11.95-98.15s144.83-38.64,145.69,10.24C2423.03,1268.02,2374.3,1437.66,2361.38,1509.01z"/>
				<path style="fill:#233862;" d="M2361.38,1509.01l-96.75-196.34c1.99-58.05,11.95-98.15,11.95-98.15s144.83-38.64,145.69,10.24
					C2423.03,1268.02,2374.3,1437.66,2361.38,1509.01z"/>
				<path style="fill:#2B478B;" d="M2329.16,1224.94l76.56,554.9c0,0,33.62,8.11,59.77,1.62c0,0,22.41-295.12,20.55-366.47
					c-1.87-71.35,16.09-190.91-4.1-204.1C2461.76,1197.7,2329.16,1224.94,2329.16,1224.94z"/>
				<path style="fill:#FFA412;" d="M2272.42,1225.96c0,0,39.12,22.81,95.79,22.17c22.09-0.25,41.31-1.9,57.62-4.33
					c45.45-6.74,68.39-19.43,68.2-24.16c-0.15-4.26-0.45-18.43-0.99-24.52c-7.22-83.29-3.49-148.08-13.21-196.74
					c-0.12-0.59-0.23-1.17-0.36-1.75c-12.86-61.87-33.02-97.42-43.03-112c-3.66-5.32-5.95-7.84-6.07-7.84
					c0,11.54-24.59,21.51-44.63,20.21c-16.89-1.1-27.84-13.95-27.84-20.9l-0.02-0.02c-1.38,0-76.17,51.98-76.23,100.28
					C2281.39,1192.83,2268.27,1226.04,2272.42,1225.96z"/>
				<path style="fill:#E27F2B;" d="M2425.72,1243.09c0.04,0.24,0.07,0.48,0.11,0.71c45.45-6.74,68.39-19.43,68.2-24.16
					c-0.15-4.26-0.45-18.43-0.99-24.52c-7.22-83.29-3.49-148.08-13.21-196.74C2455.97,1030.26,2406.93,1113.78,2425.72,1243.09z"/>
				<g>
					<path style="fill:#E9F3FE;" d="M2301.22,1139.55l6.11,20.32l6.07,20.17l263.65-79.31c0.37,0.02,0.74-0.02,1.09-0.13
						c0.36-0.11,0.7-0.28,1.02-0.5c3.32-2.35,3.93-10.97,1.37-20.68c-0.13-0.54-0.29-1.08-0.45-1.62
						c-3.08-10.44-8.69-18.16-13-18.23c-0.36-0.01-0.69,0.04-1.03,0.13c-0.35,0.11-0.66,0.26-0.97,0.47L2301.22,1139.55z"/>
					<path style="fill:#BED4F4;" d="M2307.33,1159.87l6.07,20.17l263.65-79.31c0.37,0.02,0.74-0.02,1.09-0.13
						c0.36-0.11,0.7-0.28,1.02-0.5c3.32-2.35,3.93-10.97,1.37-20.68c-10.78,8.09-62.25,43.87-150.1,61.27
						C2339.61,1158.69,2311.51,1159.82,2307.33,1159.87z"/>
					<path style="fill:#AFCDFB;" d="M2300.72,1139.43c4.41-1.3,10.69,6.8,14.02,18.09c3.34,11.3,2.47,21.51-1.94,22.81
						c-4.41,1.3-10.69-6.8-14.02-18.09C2295.44,1150.95,2296.31,1140.73,2300.72,1139.43z"/>
				</g>
				<g>
					<path style="fill:#E9F3FE;" d="M2563.17,1052.74l31.08-5.04c0.34-0.16,0.66-0.28,1.03-0.34c0.35-0.05,0.68-0.06,1.03,0
						c4.26,0.63,8.81,9.02,10.5,19.78c0.1,0.57,0.17,1.11,0.24,1.67c0.6,4.76,0.52,9.17-0.12,12.7c-0.69,3.77-2.03,6.52-3.85,7.55
						c-0.04,0.03-0.08,0.05-0.11,0.07c-0.35,0.18-0.7,0.31-1.08,0.36c-0.36,0.06-0.72,0.05-1.09-0.02l-271.77,44.1l-3.37-20.79
						l-3.39-20.95L2563.17,1052.74z"/>
					<path style="fill:#BED4F4;" d="M2450.21,1109.89c58.13-3.74,88.94-34.47,112.96-57.15l31.08-5.04
						c0.34-0.16,0.66-0.28,1.03-0.34c0.35-0.05,0.68-0.06,1.03,0c4.26,0.63,8.81,9.02,10.5,19.78c0.1,0.57,0.17,1.11,0.24,1.67
						c0.6,4.76,0.52,9.17-0.12,12.7c-1.46,4.13-2.96,6.93-3.85,7.55c-0.04,0.03-0.08,0.05-0.11,0.07c-0.35,0.18-0.7,0.31-1.08,0.36
						c-0.36,0.06-0.72,0.05-1.09-0.02l-271.77,44.1l-3.37-20.79C2329.82,1113.27,2357.82,1115.83,2450.21,1109.89z"/>
					<path style="fill:#AFCDFB;" d="M2321.78,1091.64c4.54-0.71,9.71,8.14,11.53,19.77c1.83,11.64-0.37,21.65-4.91,22.36
						c-4.54,0.71-9.71-8.14-11.53-19.77C2315.04,1102.37,2317.24,1092.36,2321.78,1091.64z"/>
				</g>
				<path style="fill:#D9935C;" d="M2418.47,1171.62c63.04-10.03,104.7-36.44,121.81-49.21c5.84-4.36,8.82-7.14,8.82-7.14
					c32.3-67.91-26.13-186.97-36.81-207.15c-11.53-21.76-81.9-31.33-81.9-31.33s11.24,33.06,15.63,76.16
					c4.39,43.1,51.22,127.1,49.3,134.15c-0.48,1.78-6.14,5.5-14.39,10.21c-24.46,13.93-71.74,36.38-74.61,41.66
					C2402.47,1146,2418.47,1171.62,2418.47,1171.62z"/>
				<path style="fill:#D9935C;" d="M2406.3,1138.96c0,0-35.22-14.09-43.86-8.32c-8.64,5.76-23.05,14.41-23.05,20.17
					c0,5.76,18.25,21.13,33.62,25.93c15.37,4.8,45.46-5.12,45.46-5.12L2406.3,1138.96z"/>
				<path style="fill:#FFA412;" d="M2446,952.94c4.39,43.1,51.22,127.1,49.3,134.15c-0.48,1.78-6.14,5.5-14.39,10.21
					c0.52,0.04,1.05,0.05,1.58,0.03c36.84-1.62,53.52,18.76,57.77,25.07c5.84-4.36,8.82-7.14,8.82-7.14
					c32.3-67.91-26.13-186.97-36.81-207.15c-11.53-21.76-81.9-31.33-81.9-31.33S2441.62,909.85,2446,952.94z"/>
				<path style="fill:#D9935C;" d="M2354.57,848.35c0,0,67.74,13.68,75.62-28.63c7.87-42.32,21.92-69.05-21-79.58
					c-42.92-10.53-54.35,4.05-60.41,17.54C2342.71,771.16,2337.15,843.7,2354.57,848.35z"/>
				<path style="fill:#233862;" d="M2428.84,831.91c0,0,13.1-27.95,24.02-40.36c10.92-12.41,4.96-74.47-42.2-72.48
					c-47.16,1.99-64.04,35.75-64.54,42.2c-0.5,6.45,37.73,1.49,48.16,9.93c10.43,8.44,0.5,22.34,12.41,27.31
					c11.92,4.96,21.35,4.96,19.36,15.89C2424.06,825.31,2428.84,831.91,2428.84,831.91z"/>
				<path style="fill:#FFA412;" d="M2414.28,690.25c13.49,3.39,23.62,8.81,31.18,15.33c0.75,0.64,1.48,1.31,2.18,1.98l0.01,0.01
					c27.97,26.67,16.81,69.13,16.81,69.13s-3.72,10.73-6.28,14.89c-2.56,4.16-39.7-0.64-41.62-8.64c-1.92-8-9.28-16.33-9.28-16.33
					s-39.15-2.69-41.78-2.88c-8.84-0.64-34.08-9.42-34.08-9.42C2331.69,751.83,2345.89,673.08,2414.28,690.25z"/>
				<path style="fill:#E27F2B;" d="M2308.21,745.99c4.7-1.15,12.7-2.43,25.9-2.91c0,0,11.08,9.18,33.11,16.17
					c10.35-13.04,39.84-44.48,78.24-53.67c0.12-0.03,0.22-0.06,0.34-0.09c0.82,1.03,1.28,1.37,1.84,2.06l0.01,0.01
					c0.17,0.2,0.36,0.44,0.56,0.74c-31.26,5.45-60.97,40.56-71.17,53.7c8.75,2.15,18.82,3.85,30.23,4.6c0,0-68.42,1.28-99.69-15.19
					C2305.19,750.17,2305.59,746.63,2308.21,745.99z"/>
				<path style="fill:#E27F2B;" d="M2238.54,1056.68c1.27,7.18,5.14,14.74,16.19,17.11c-0.43-1-0.82-1.95-1.15-2.83
					c-1.13-2.95-1.73-5.23-1.59-6.59c0.41-4.18,13.54-14.34,28.81-26.39c1.26-6.84,4.33-27.13,0.01-43.24
					C2275.52,975.04,2237.1,1048.51,2238.54,1056.68z"/>
				<path style="fill:#E27F2B;" d="M2488.27,1092.45c0,0,47.06-3.84,62.43,23.53c0,0-1.31,9.23-10.42,6.42
					c0,0-39.81-27.21-59.36-25.1C2480.92,1097.3,2483.94,1092.53,2488.27,1092.45z"/>
				<path style="fill:#E27F2B;" d="M2254.73,1073.78c0,0-24.42,1.02-55.15,14.41c0,0-6.82-6.7-4.1-10.54
					C2198.2,1073.81,2241.47,1059.99,2254.73,1073.78z"/>
			</g>
		</g>
		<g>
			<path style="fill:#739AF0;" d="M1233.74,1123.59c11.03,2.55,60.89,3.15,95.89-4.71c7.3-1.63,13.97-3.64,19.48-6.07
				c6.59-2.91,11.57-6.42,14.1-10.65c3.96-6.59,11.2-29.16,19.71-58.75c23.44-81.51,56.43-216.2,56.43-216.2
				s-66.24,13.52-80.26,25.06c-14.03,11.54-25.33,196.09-38.52,201.04c-1.94,0.73-6.09,1.88-10.39,3.99c-0.21,0.1,0,0-0.21,0.1
				c-2.56,1.26-3.76,2.1-6.88,3.7c-27.35,14.05-74.98,39.13-79.67,44.76C1217.25,1113.29,1217.66,1119.88,1233.74,1123.59z"/>
			<path style="fill:#739AF0;" d="M1360.85,931.44c0-3.12,0.31-6.24,0.88-9.36c8.52-46.87,76.3-94.87,77.64-94.87l0.01,0.98
				c0,7.16,11.29,20.39,28.69,21.52c20.63,1.35,46.1-10.42,46.1-22.31c0.12,0,11.59,1.55,15.48,1.98
				c16.54,1.88,49.54,10.81,63.68,21.5c13.45,10.16-5.55,74.2-17.32,119.55c-4.98,19.19-8.66,35.02-8.05,42.03
				c0.3,3.43,3.38,49.98,6.12,92.08c2.28,34.74,4.33,66.44,4.39,68.43c0.15,3.95-19.47,17.76-52.41,28.2
				c-7.95,2.52-16.7,4.85-26.13,6.78c-16.91,3.48-36.03,5.72-56.84,5.64c-6.8-0.03-13.25-0.37-19.33-0.98
				C1376.7,1208.02,1360.58,1154.39,1360.85,931.44z"/>
			<path style="fill:#D9935C;" d="M1514.15,826.85c0.4-18.2,0.1-39.94-2.36-58.31l-72.66,11.87c0,0-0.08,22.18,0.24,46.79
				c-0.04,0.01-1.98,22.82,26.14,26.16C1493.61,856.71,1514.91,844.47,1514.15,826.85z"/>
			<path style="fill:#4A75CB;" d="M1519.92,1072.46c0,69.68,33.77,50.9,54.16,32.09c-2.75-42.11-4.68-191.26-4.68-191.26
				S1519.92,972.67,1519.92,1072.46z"/>
			<path style="fill:#4A75CB;" d="M1300.97,1061.71c1.35,9.77,8.95,39.5,21.06,59.3c7.3-1.63,21.58-5.77,27.09-8.21
				c6.59-2.91,11.57-6.42,14.1-10.65c3.96-6.59,11.2-29.16,19.71-58.75c-6.3-36.42-12.28-72.38-12.28-72.38l-1.86-24.12
				c0,1.86-28.24,107.83-41.03,110.31c-7.71,1.5-11.98,0.26-16.63-0.41c-0.21,0.1-0.42,0.21-0.63,0.31
				C1307.94,1058.37,1304.09,1060.1,1300.97,1061.71z"/>
			<path style="fill:#233862;" d="M1521.07,747.59c0,0,48.51-76.48-44.63-81.54c0,0-34.93,4.11-42.84-3.8c0,0-27.1,41.18-1.79,85.34
				C1457.1,791.74,1521.07,747.59,1521.07,747.59z"/>
			<path style="fill:#D9935C;" d="M1441.28,787.5c7.06,5.56,27.76,11.07,33.75,11.72c0,0,30.7-6.85,36.28-10.21
				c8.64-5.24,8.09-15.84,8.53-30.58c0.53-17.45,2.29-31.15,0.34-41.21c-2.31-12.03-9.94-18.88-31.31-20.74
				c-39.21-3.4-55.55,6.42-56.23,19.56c-0.18,3.53-0.34,6.9-0.46,10.08C1430.61,767.12,1433.85,781.66,1441.28,787.5z"/>
			<path style="fill:#233862;" d="M1431.83,739.56c0.38,23.75,6.78,37.81,11.43,39.59c5.34,2.05,11.63,3.74,18.19,4.86
				c2.21,0.26,4.32,0.19,4.3-1.07c-0.07-3.75-5.08-8.36-1.36-11.68c3.9-3.48,24.84-4.65,26.53,2.94c0.82,3.7-5.93,10.24-1.3,10.39
				c1.4-0.24,2.78-0.51,4.1-0.85c7.63-1.99,13.61-5.6,16.13-7.12c8.64-5.24,8.08-13.27,9.99-27.89c1.24-9.46,1.24-4.33,0,9.71
				c-1.3,14.69,1.24,24.12-8.53,30.58c-5.43,3.6-36.73,17.66-36.73,17.66c0.46-7.45-26.23-13.61-33.29-19.16
				C1434.72,782.35,1431.43,770.43,1431.83,739.56z"/>
			<path style="fill:#2B478B;" d="M1578.46,1172.98c0.15,3.95-19.47,17.76-52.41,28.2c-2.65,0.85-5.4,1.66-8.23,2.44
				c-0.04,0.01-0.06,0.04-0.07,0.08c-3.07,36.06-11.39,86.99-18.9,136.15c0,0,0,0,0,0.01c-1.94,12.74-3.82,25.36-5.55,37.57
				c-4.58,32.31-8,61.75-8.37,82.94v0.22c-0.16,9.72,8.04,33.98,8.66,39.58c0.38,3.43,0.69,7.05,0.92,10.85
				c0.89,15.18,0.53,33.12-0.69,52.27c-5.38,83.57-27.46,190.5-35.34,195.06c-15.66,9.05-44.16-0.01-58.65-2.13
				c-6-0.89-10.8-6-10.49-12.05c7.08-138.7-13.25-331.86-28.44-450.6c-0.4-3.09-0.79-6.12-1.18-9.1c-1.82-14-3.02-27.08-3.77-38.87
				c-0.69-10.34-1.03-19.73-1.18-27.87c-0.04-2.54-0.06-4.96-0.07-7.25c-0.04-7.43,5.88-56.1,6.15-279.05l0,0
				c0.01-5.15,4.22-9.36,9.37-9.36h136.34c13.18,0,23.78,10.78,23.61,23.96c-0.21,17.01,0.4,40.75,4.09,63.42
				c5.03,30.96,15.81,59.88,38.05,66.84c0.02,0.01,0.04,0.02,0.05,0.04c0.1,0.22,0.71,1.58,1.68,3.83c0,0.01,0.01,0.02,0.01,0.03
				c0.21,5.6,0.44,11.3,0.7,17.1c0.05,1.16,0.1,2.34,0.16,3.51c0.02,0.69,0.06,1.37,0.1,2.07c0.05,1.18,0.11,2.36,0.17,3.55
				c0.09,1.95,0.18,3.92,0.3,5.91c0.09,1.56,0.17,3.12,0.26,4.69c0.16,3.02,0.35,6.07,0.54,9.15c0.05,0.99,0.11,1.97,0.19,2.97
				c0.26,3.98,0.53,8.03,0.84,12.1c0.09,1.25,0.18,2.5,0.28,3.76c0.04,0.61,0.09,1.21,0.14,1.82c0.12,1.6,0.25,3.19,0.38,4.8
				c0.14,1.69,0.28,3.4,0.43,5.12C1579.11,1163.01,1578.3,1168.59,1578.46,1172.98z"/>
			<path style="fill:#233862;" d="M1493.81,1563.3c-5.38,83.57-27.46,190.5-35.34,195.06c-15.66,9.05-44.16-0.01-58.65-2.13
				c-6-0.89-10.8-6-10.49-12.05c7.08-138.7-13.25-331.86-28.44-450.6c-0.4-3.09-0.79-6.12-1.18-9.1c-1.82-14-3.02-27.08-3.77-38.87
				c7.22-47.08,48-49.6,84.97,47.79C1436.34,1325.71,1495.04,1544.15,1493.81,1563.3z"/>
			<path style="fill:#2B478B;" d="M1579.99,1456.45c1.12,9.66,12.43,32.63,13.78,38.11c18.69,75.18,8.37,253.42-0.9,260.55
				c-14.34,11.03-43.79,5.79-58.42,5.59c-6.06-0.09-11.49-4.53-11.98-10.56c-11.49-142.02-59.12-337.09-89.75-451.83
				c-15.42-57.8-17.61-100.3-17.61-100.3s143.15-87.7,158.63-39.79C1587.45,1200.61,1571.36,1382.27,1579.99,1456.45z"/>
			<g>
				<path style="fill:#FFA412;" d="M1434.2,644.66c0.99-1.11,2.03-2.19,3.14-3.23c4.67-4.44,10.29-8.26,17.05-11.08
					c24.96-10.41,45.66-0.8,58.59,9.04c1.28,0.96,2.47,1.93,3.59,2.89c7.03,5.98,10.96,11.31,10.96,11.31s12.12,16.54,11.72,51.4
					l-124.86,1.33C1414.39,706.32,1412.56,668.67,1434.2,644.66z"/>
				<g>
					<path style="fill:#E27F2B;" d="M1504.21,705.35l-6.86,0.08c-0.14-1.99,0.19-47.3,17.1-64.9c1.28,0.96,1.01,0.79,2.12,1.76
						C1500.52,657.77,1504.18,704.88,1504.21,705.35z"/>
					<path style="fill:#E27F2B;" d="M1449.95,705.94c-1.43-27.74-12.05-56.9-14.92-62.08c0.99-1.14,1.2-1.35,2.3-2.43
						c1.99,3.43,18.27,33.62,20,64.43l81.92-0.88c0,0-41.51,9.31-66.56,9.62c-25.05,0.31-58.3-8.29-58.3-8.29L1449.95,705.94z"/>
				</g>
			</g>
			<path style="fill:#2B478B;" d="M1534.55,830.05c0,0-42.19,49.15-44.66,92.03l21.49,1.14c0,0,5.41-47.76,37.16-90.23
				c0,0-4.97-1.2-6.62-1.53C1539.71,831.02,1534.55,830.05,1534.55,830.05z"/>
			<path style="fill:#2B478B;" d="M1429.36,829.38c-30.22,45.73-33.46,93.63-33.46,93.63l-21.69-0.37
				c1.78-33.71,22.96-70.79,34.65-88.35C1408.86,834.28,1423.87,830.49,1429.36,829.38z"/>
			<path style="fill:#739AF0;" d="M1568.31,1093.88c-1.06,50.32,5.21,150.53,5.21,150.53h29.69
				c14.02-70.51,18.96-115.87,18.96-140.61c0-4.87-0.03-9.41-0.06-13.61c-0.18-21.13-0.75-33.4-0.75-33.4
				c5.57-128.02-20-196.48-28.03-205.9c-8.04-9.43-44.78-17.9-44.78-17.9s-12.14,35.37-17.08,63.82
				c-4.95,28.45,38.92,148,37.11,188.86C1568.46,1088.21,1568.37,1090.96,1568.31,1093.88z"/>
			<path style="fill:#D9935C;" d="M1126.84,1108.39c6.34,8.99,10.37,13.78,19,16.13c12.53,3.42,23.69-2.79,31.95-7.55
				c6.32-3.64,14.21-3.94,17.58-3.88c19.42,4.74,39.43,22.72,126.65,7.92c10.53-12.58,3.81-37.25-18.92-59.9
				c-36.47,9.64-100.64,21.8-112.13,29.25c0,0-14.67-4.22-23.78-1.79c-3.45,0.92-7.31,3.42-10.77,6.18
				c-5.45,4.33-12.86,4.68-19.32,0.79c-6.22-3.75-12.88-4.62-15.2-3.78C1118.32,1093.06,1122.85,1102.73,1126.84,1108.39z"/>
			<path style="fill:#739AF0;" d="M1521.75,1208.75l-92.52-7.47c-4.48-0.36-7,5.02-3.87,8.24l64.87,66.39
				c2.37,2.42,6.43,1.74,7.87-1.33l12.66-26.98l30.33,14.23l2.33-4.96l-30.33-14.23l12.66-26.98
				C1527.2,1212.58,1525.13,1209.02,1521.75,1208.75z"/>
			<path style="fill:#B84C42;" d="M1105.17,1091.01l121.25,40.3c4.11,1.36,8.54-0.86,9.91-4.97l10.27-30.91
				c1.36-4.11-0.86-8.54-4.97-9.91l-121.25-40.3c-4.11-1.36-8.54,0.86-9.91,4.97l-10.27,30.91
				C1098.84,1085.21,1101.06,1089.64,1105.17,1091.01z"/>
			<path style="fill:#FFA412;" d="M1623.63,1294.84L1623.63,1294.84c-1.55,3.59-5.72,5.24-9.3,3.69l-72.1-31.15
				c-3.59-1.55-5.24-5.72-3.69-9.3l0,0c1.55-3.59,5.72-5.24,9.3-3.69l72.1,31.15C1623.53,1287.08,1625.18,1291.25,1623.63,1294.84z"
				/>
			<path style="fill:#D9935C;" d="M1573.52,1244.41c0,0-6.27-100.21-5.21-150.53c23.74-7.66,42.89-5.98,53.8-3.69
				c0.04,4.19,0.06,8.73,0.06,13.61c0,24.74-4.95,70.1-18.96,140.61c6.18,25.98,5.77,54.02-4.95,58.97
				c-10.72,4.95-46.18-13.61-45.77-21.85C1552.9,1273.28,1573.52,1244.41,1573.52,1244.41z"/>
		</g>
		<g>
			<g>
				<g>
					<g>
						<path style="fill:#FFA412;" d="M806.74,1277.41H662.26c-7.95,0-14.45,6.5-14.45,14.45v108.36c0,7.95,6.5,14.45,14.45,14.45
							h144.48c7.95,0,14.45-6.5,14.45-14.45v-108.36C821.19,1283.92,814.68,1277.41,806.74,1277.41z"/>
						<path style="fill:#E27F2B;" d="M853.69,1277.41H709.22c-7.95,0-14.45,6.5-14.45,14.45v108.36c0,7.95,6.5,14.45,14.45,14.45
							h144.48c7.95,0,14.45-6.5,14.45-14.45v-108.36C868.14,1283.92,861.64,1277.41,853.69,1277.41z"/>
					</g>
					<path style="fill:#FFA412;" d="M677.91,1278.02c0,0,34.31-25.28,39.43-24.68c5.12,0.6,13.24,2.41,13.24,2.41l-30.7,23.18
						L677.91,1278.02z"/>
				</g>
				<path style="fill:#9ED9F0;" d="M948.75,878.63c-13.76-10.4-45.88-19.1-61.98-20.93c-3.78-0.42-15.09-0.47-15.21-0.47
					c0,11.57-24.65,21.56-44.73,20.25c-16.93-1.11-27.92-13.98-27.92-20.95l-0.01-0.02c-1.3,0-67.27,45.79-75.56,91.41
					c-0.55,3.05-0.85,6.08-0.85,9.11c-0.26,216.99-13.41,250.27-9.26,250.2c0,0,24.68,18.99,70.48,23.48
					c5.92,0.59,12.2,0.93,18.82,0.95c20.25,0.07,38.86-2.11,55.32-5.49c9.17-1.88,17.69-4.14,25.43-6.6
					c32.06-10.16,51.16-23.61,51.01-27.45c-0.16-4.27,0.63-9.7,0.1-15.8c-2-22.97-3.09-43.04-3.94-63.26
					c34.79,3.06,54.87-0.39,54.87-0.39C1013.81,1051.37,967.36,892.7,948.75,878.63z M940.62,1055.26
					c-2.12,0.57-4.42,1.11-6.87,1.63c-1.7,0.37-3.47,0.72-5.3,1.06c-0.04-0.83-0.06-1.67-0.1-2.49c-0.47-11.37-1-22.19-1.75-32.48
					c-0.63-8.62-1.4-16.87-2.41-24.74C936.2,1029.88,944.57,1054.2,940.62,1055.26z"/>
				<path style="fill:#D9935C;" d="M798.91,856.53c0,0-50.96,7.72-72.91,26.01c-21.94,18.29-24.16,134.72-31.48,167.64
					c-1.44,6.46-2.73,16.9-3.84,29.61c-3.92,44.67,0.78,106.61,4.67,129.51c0.41,5.52,0.2,13.63-2.99,21.61
					c-5.62,14.05-6.82,18.06,3.21,26.09c10.03,8.03,20.87,19.26,28.49,16.05c5.88-2.48,4.84-41.49,4.05-59.2
					c8.8-37.84,23.06-108.87,36.48-177.7C782.5,944.39,798.91,856.53,798.91,856.53z"/>
				<path style="fill:#9ED9F0;" d="M798.91,856.54c0,0-9.46,50.63-21.85,115.16c-3.92,20.48-8.15,42.36-12.46,64.46
					c-17.54,34.37-32.59,57.74-37.24,53.35c-9.49-8.96-26.14-10.07-36.67-9.73c1.11-12.71,2.41-23.14,3.84-29.61
					c0.58-2.6,1.12-5.72,1.65-9.27c6.14-41.42,9.62-141.53,29.82-158.36c10.63-8.85,28.06-15.23,43.22-19.47h0.01
					c7.74-2.16,14.89-3.74,20.24-4.83C795.25,857.09,798.91,856.54,798.91,856.54z"/>
				<path style="fill:#74ACBE;" d="M727.36,1089.51c-9.48-8.96-26.14-10.06-36.68-9.73c1.11-12.71,2.41-23.15,3.84-29.61
					c0.58-2.6,1.12-5.72,1.65-9.27l52.58-126.94C748.76,913.97,732.01,1093.91,727.36,1089.51z"/>
				<path style="fill:#D9935C;" d="M871.69,855.24c0.39-17.72,0.09-38.87-2.3-56.75l-70.72,11.56c0,0,0,21.58,0.31,45.53
					c-0.04,0.01-0.07,0.01-0.07,0.01s-1.93,22.21,25.43,25.47C851.7,884.3,872.43,872.38,871.69,855.24z"/>
				<path style="fill:#233862;" d="M812.5,1794.82c8.89-5.47,3.69-46.31,3.69-46.31s-41.65-33.06-47.26-7.61
					c-5.61,25.46-39.31,37-58.5,40.19c-13.25,2.2-17.33,9.56-18.58,13.9L812.5,1794.82z"/>
				<path style="fill:#74ACBE;" d="M933.76,1056.94c0,0-13.24,17.9-15.95,17.9c-2.71,0-36.12-12.94-26.54-41.89
					c9.58-28.94,32.93-34.74,32.93-34.74c1.01,7.87,1.78,16.12,2.41,24.74c0.75,10.29,1.28,21.12,1.75,32.48
					c0.04,0.82,0.06,1.66,0.1,2.49c1.83-0.34,3.6-0.69,5.3-1.06L933.76,1056.94z"/>
				<path style="fill:#233862;" d="M940.13,1794.82c8.89-5.47,3.69-46.31,3.69-46.31s-41.65-33.06-47.26-7.61
					c-5.61,25.46-39.31,37-58.5,40.19c-13.25,2.2-17.33,9.56-18.58,13.9L940.13,1794.82z"/>
				<path style="fill:#2B478B;" d="M934.29,1192.13c0.14,3.84-18.95,17.29-51.01,27.45c-2.58,0.83-5.26,1.61-8.01,2.38
					c-0.04,0.01-0.06,0.04-0.07,0.08c-2.99,35.09-11.09,84.67-18.39,132.51c0,0,0,0,0,0.01c-1.89,12.4-3.72,24.68-5.41,36.56
					c-4.45,31.45-7.79,60.1-8.15,80.73v0.22c-0.16,9.46,7.83,33.07,8.43,38.53c0.37,3.34,0.67,6.86,0.89,10.56
					c0.87,14.77,0.52,32.23-0.67,50.87c-5.24,81.34-26.73,185.41-34.4,189.84c-15.24,8.81-42.98-0.01-57.08-2.07
					c-5.84-0.87-10.51-5.84-10.21-11.73c6.89-134.99-12.9-322.99-27.68-438.56c-0.39-3.01-0.77-5.96-1.14-8.86
					c-1.77-13.63-2.94-26.36-3.67-37.83c-0.67-10.07-1-19.2-1.14-27.13c-0.04-2.47-0.06-4.83-0.07-7.06
					c-0.04-7.24,5.72-54.6,5.98-271.59l0,0c0.01-5.01,4.11-9.11,9.12-9.11h132.7c12.82,0,23.14,10.49,22.98,23.32
					c-0.21,16.55,0.39,39.67,3.98,61.72c4.9,30.13,15.39,58.28,37.03,65.05c0.02,0.01,0.04,0.02,0.05,0.04
					c0.1,0.22,0.69,1.54,1.64,3.73c0,0.01,0.01,0.02,0.01,0.03c0.2,5.45,0.43,10.99,0.69,16.65c0.05,1.13,0.1,2.28,0.16,3.42
					c0.02,0.67,0.06,1.34,0.1,2.01c0.05,1.14,0.11,2.3,0.17,3.46c0.08,1.9,0.18,3.82,0.29,5.76c0.08,1.52,0.17,3.03,0.25,4.56
					c0.16,2.94,0.34,5.91,0.53,8.91c0.05,0.96,0.11,1.91,0.18,2.89c0.25,3.88,0.52,7.81,0.82,11.77c0.08,1.22,0.18,2.43,0.28,3.66
					c0.04,0.59,0.08,1.18,0.13,1.77c0.12,1.55,0.24,3.11,0.37,4.67c0.13,1.65,0.28,3.31,0.42,4.98
					C934.91,1182.42,934.13,1187.85,934.29,1192.13z"/>
				<path style="fill:#233862;" d="M851.9,1572.02c-5.24,81.34-26.73,185.41-34.4,189.84c-15.24,8.81-42.98-0.01-57.08-2.07
					c-5.84-0.87-10.51-5.84-10.21-11.73c6.89-134.99-12.9-322.99-27.68-438.56c-0.39-3.01-0.77-5.96-1.14-8.86
					c-1.77-13.63-2.94-26.36-3.67-37.83c7.03-45.82,46.71-48.28,82.7,46.51C815.84,1346.04,853.09,1553.38,851.9,1572.02z"/>
				<path style="fill:#2B478B;" d="M935.78,1468.02c1.09,9.4,12.1,31.76,13.42,37.09c18.19,73.17,8.14,246.65-0.88,253.59
					c-13.95,10.74-42.62,5.63-56.86,5.44c-5.9-0.08-11.18-4.41-11.66-10.28c-11.19-138.23-57.54-328.08-87.35-439.76
					c-15.01-56.26-17.14-97.62-17.14-97.62s139.32-85.36,154.39-38.73C943.03,1219.01,927.37,1395.82,935.78,1468.02z"/>
				<path style="fill:#2B478B;" d="M891.54,858.35c0,0-41.06,47.83-43.47,89.57h20.87c0,0,5.32-45.37,36.22-86.71L891.54,858.35z"/>
				<path style="fill:#2B478B;" d="M789.47,858.25c-29.41,44.51-32.9,89.67-32.9,89.67H735.7c1.73-32.81,22.14-67.75,33.52-84.84
					h0.01C776.98,860.92,784.13,859.33,789.47,858.25z"/>
				<path style="fill:#FFA412;" d="M1001.44,1116.79c-0.78-15.9-2.96-34.81-7.1-57.29c-0.01,10.83-0.72,21.08-2.31,30.35
					c5.16,41.15,3.17,72.6-6,90.41c-5.68,11.04-13.55,19.52-23.07,25.19c4.85-4.72,9.13-10.35,12.75-16.83
					c7.05-12.63,13.54-36.14,11.13-79.51c-0.49,1.23-0.99,2.43-1.53,3.59c0,0-1.79,0.31-5.23,0.66
					c1.41,31.71-1.97,55.99-10.07,70.52c-6.13,11.01-14.46,19.23-24.4,24.46c3.13-3.1,6.01-6.59,8.68-10.48
					c8.36-12.29,17.09-36.45,17.46-83.87c-2.09,0.12-4.4,0.22-6.94,0.29c-0.39,36.35-5.75,63.4-15.84,78.19
					c-0.46,0.68-0.95,1.37-1.45,2.03c7.66-13.14,14.98-36.96,15.36-80.18c-2.17,0.03-4.49,0.06-6.95,0.03
					c-0.36,36.32-5.75,63.35-15.83,78.12c-6.32,9.26-14.24,16.04-23.34,20.22c-2.78-0.47-5.63-1.1-8.48-1.86
					c-0.39-0.09-0.77-0.19-1.15-0.31c-0.04-0.01-0.08-0.02-0.12-0.03c-0.38-0.1-0.76-0.21-1.14-0.32
					c-3.49-1.01-6.87-2.17-10.15-3.48c-40.15-15.94-63.18-51.84-65.42-81.35c-1.59-20.96,0.11-52.17,4.35-86.12
					c8.34-66.9,26.51-144.46,48.61-175.28c0.38-0.52,0.73-1.03,1.1-1.51c0,0,0-0.01,0.01-0.01c0.46-0.61,0.93-1.2,1.4-1.75
					c0.82-0.98,1.62-1.9,2.45-2.74c0.01-0.01,0.01-0.01,0.02-0.02c1.73-1.78,3.46-3.18,5.15-4.21c0.46,0.28,0.97,0.62,1.52,1.06
					c1.43,1.09,3.14,2.76,5.12,5.27c0.01,0.02,0.03,0.03,0.04,0.06c2.31,0.5,4.7,1.07,7.15,1.69c1.14,0.31,2.31,0.61,3.48,0.95
					c0.08,0.01,0.14,0.02,0.22,0.05c0.28,0.06,0.55,0.14,0.82,0.22c1.43,0.4,2.87,0.82,4.31,1.25c0.82,0.25,1.64,0.51,2.46,0.76
					c0.97,0.31,1.93,0.62,2.89,0.94c1.05,0.35,2.1,0.71,3.13,1.07c1.1,0.39,2.21,0.78,3.29,1.19c-0.02-0.03-0.04-0.07-0.07-0.1
					c-13.01-20.5-22.25-25.27-28.25-24.99c-0.94,0.04-1.86,0.17-2.81,0.38c-1.09-0.29-2.1-0.41-3.01-0.41
					c-2.01,0.01-4.03,0.39-6.05,1.11c-6.18,0.6-12.68,4.5-19.41,11.68c-0.46,0.47-0.92,0.98-1.38,1.5
					c-3.74,4.21-7.48,9.34-11.21,15.22c-0.02,0.03-0.04,0.07-0.07,0.1c-35.58,56.23-68.75,181.15-70.73,239.62
					c-1.56,46.27,34.07,87.64,70.07,104.58c3.52,1.65,7.02,3.09,10.47,4.29c1.95,0.68,3.88,1.29,5.8,1.83
					c0.04,0.01,0.08,0.02,0.12,0.03c7.46,2.1,14.71,3.13,21.66,3.13c1.49,0,2.96-0.04,4.41-0.14c1.5,0.1,2.99,0.14,4.47,0.14
					c6.54,0,12.83-0.92,18.77-2.74c0.94-0.04,1.88-0.11,2.8-0.18c0.79-0.08,1.59-0.14,2.36-0.24c1.52-0.18,3.03-0.41,4.52-0.68
					c4.36,0.02,8.6-0.3,12.71-0.98c12.93-2.12,24.4-7.68,33.79-16.42c5.91-5.49,11-12.25,15.09-20.19
					C997.89,1173.05,1003.21,1152.51,1001.44,1116.79z M791.76,1112.64c1.74-51.75,30.04-161.66,61.33-221.01
					c-1.09,2.63-2.2,5.34-3.28,8.13c-29.57,62.62-54.4,162.21-56.09,212.53c-0.72,21.05,6.27,41.07,17.49,58.25
					C797.7,1151.59,791.16,1130.37,791.76,1112.64z M866.26,1209.02c-44.53-20.96-66.72-64.35-65.63-96.38
					c0.95-28.43,9.93-74.43,23.01-119.95c-10.2,49.2-15.9,99.11-14.5,129.77c1.77,38.82,29.35,71.1,60.15,87.92
					C868.28,1209.96,867.29,1209.5,866.26,1209.02z M816.03,1122c-2.03-44.39,12-133.78,32.75-197.9
					c2.33-7.17,4.73-14.03,7.22-20.49c0.93-1.96,1.85-3.87,2.78-5.76c-15.97,43.75-27.98,106.28-33.18,158.8
					c-2.67,27.15-3.52,51.62-2.17,69.45c2.43,32.04,22.4,58.8,46.93,75.82C836.15,1183.02,817.28,1149.37,816.03,1122z"/>
				<path style="fill:#D9935C;" d="M933.76,1056.94c-1.13,0.17-22.47,4.06-23.63,4.23c-35.54,5.21-83.35,7.5-88.33,7.73
					c-0.47-0.44-17.43-16.23-24.04-16.23c-6.71,0-26.04,7.04-28.01,12.46c-1.97,5.42-2.76,15.17,2.76,17.34
					c5.52,2.17,28.4,7.59,34.32,8.13c0.81,0.07,1.78,0.07,2.84-0.02c42.5,12.49,79.09,18.63,107.28,21.53
					c2.52,0.26,17.06,2.15,29.97,2.02C946.47,1089.58,938.21,1066.92,933.76,1056.94z"/>
				<path style="fill:#B64C41;" d="M878.43,778.1c0,0,47.21-74.44-43.44-79.36c0,0-34,4-41.7-3.69c0,0-26.37,40.08-1.74,83.06
					C816.17,821.07,878.43,778.1,878.43,778.1z"/>
				<path style="fill:#D9935C;" d="M800.77,816.94c6.87,5.41,27.02,10.78,32.85,11.4c0,0,29.88-6.66,35.31-9.94
					c8.41-5.1,7.87-15.42,8.3-29.77c0.52-16.98,2.23-30.32,0.33-40.11c-2.25-11.71-9.68-18.37-30.47-20.19
					c-38.17-3.31-54.07,6.24-54.73,19.04c-0.17,3.44-0.33,6.71-0.44,9.82C790.39,797.1,793.54,811.25,800.77,816.94z"/>
				<g>
					<path style="fill:#FFA412;" d="M884.72,686.61c0,0-3.82-5.19-10.67-11.01c-1.08-0.94-2.25-1.88-3.49-2.82
						c-12.59-9.58-32.74-18.93-57.03-8.8c-6.58,2.74-12.06,6.47-16.6,10.79c-1.08,1.02-2.1,2.06-3.06,3.14
						c-21.06,23.37-19.28,60.01-19.28,60.01l121.53-1.3C896.52,702.71,884.72,686.61,884.72,686.61z"/>
					<g>
						<path style="fill:#E27F2B;" d="M862.02,736.98c-0.03-0.45-3.59-46.3,12.03-61.38c-1.08-0.94-0.83-0.77-2.07-1.71
							c-16.45,17.12-16.78,61.23-16.64,63.16L862.02,736.98z"/>
						<path style="fill:#E27F2B;" d="M816.48,737.48c-1.15-29.76-17.58-59.4-19.55-62.71c-1.08,1.02-1.28,1.22-2.24,2.3
							c2.85,5.02,13.58,33.71,14.6,60.48l-34.69,0.37c0,0,32.37,8.37,56.75,8.06c24.38-0.3,64.78-9.36,64.78-9.36L816.48,737.48z"/>
					</g>
				</g>
			</g>
			<path style="fill:#CB7D45;" d="M798.91,815.18c0,0,12.02,9.16,34.7,13.17c0,0,12.43,0.59,37.5-11.56c0,0-30.95,26.02-37.65,26.27
				C826.77,843.31,798.91,815.18,798.91,815.18z"/>
		</g>
		<g>
			<path style="fill:#233862;" d="M1553.27,1788.98c9.14-5.62,3.77-47.29,3.77-47.29s-42.79-33.97-48.56-7.82
				c-5.77,26.15-40.39,38.02-60.11,41.29c-13.61,2.26-18.64,9.3-19.93,13.77L1553.27,1788.98z"/>
			<path style="fill:#233862;" d="M1684.39,1788.98c9.14-5.62,3.77-47.29,3.77-47.29s-42.79-33.97-48.56-7.82
				c-5.77,26.15-40.39,38.02-60.11,41.29c-13.61,2.26-18.56,9.3-19.85,13.77L1684.39,1788.98z"/>
			<path style="fill:#233862;" d="M1439.82,1373.8v50.82H316.44c-5.7,0-10.32,4.62-10.32,10.32v374.92H2708.2V1373.8H1439.82z"/>
			<path style="fill:#B84C42;" d="M2576.7,1809.6h127.94c4.33,0,7.85-3.51,7.85-7.85v-32.61c0-4.33-3.51-7.85-7.85-7.85H2576.7
				c-4.33,0-7.85,3.51-7.85,7.85v32.61C2568.86,1806.09,2572.37,1809.6,2576.7,1809.6z"/>
			<path style="fill:#B84C42;" d="M2425.46,1809.6h127.94c4.33,0,7.85-3.51,7.85-7.85v-32.61c0-4.33-3.51-7.85-7.85-7.85h-127.94
				c-4.33,0-7.85,3.51-7.85,7.85v32.61C2417.61,1806.09,2421.13,1809.6,2425.46,1809.6z"/>
			<path style="fill:#B84C42;" d="M2274.22,1809.6h127.94c4.33,0,7.85-3.51,7.85-7.85v-32.61c0-4.33-3.51-7.85-7.85-7.85h-127.94
				c-4.33,0-7.85,3.51-7.85,7.85v32.61C2266.37,1806.09,2269.88,1809.6,2274.22,1809.6z"/>
			<path style="fill:#B84C42;" d="M2122.97,1809.6h127.94c4.33,0,7.85-3.51,7.85-7.85v-32.61c0-4.33-3.51-7.85-7.85-7.85h-127.94
				c-4.33,0-7.85,3.51-7.85,7.85v32.61C2115.13,1806.09,2118.64,1809.6,2122.97,1809.6z"/>
			<path style="fill:#B84C42;" d="M1971.73,1809.6h127.94c4.33,0,7.85-3.51,7.85-7.85v-32.61c0-4.33-3.51-7.85-7.85-7.85h-127.94
				c-4.33,0-7.85,3.51-7.85,7.85v32.61C1963.88,1806.09,1967.4,1809.6,1971.73,1809.6z"/>
			<path style="fill:#B84C42;" d="M1820.49,1809.6h127.94c4.33,0,7.85-3.51,7.85-7.85v-32.61c0-4.33-3.51-7.85-7.85-7.85h-127.94
				c-4.33,0-7.85,3.51-7.85,7.85v32.61C1812.64,1806.09,1816.15,1809.6,1820.49,1809.6z"/>
			<path style="fill:#B84C42;" d="M1669.24,1809.6h127.94c4.33,0,7.85-3.51,7.85-7.85v-32.61c0-4.33-3.51-7.85-7.85-7.85h-127.94
				c-4.33,0-7.85,3.51-7.85,7.85v32.61C1661.4,1806.09,1664.91,1809.6,1669.24,1809.6z"/>
			<path style="fill:#B84C42;" d="M1518,1809.6h127.94c4.33,0,7.85-3.51,7.85-7.85v-32.61c0-4.33-3.51-7.85-7.85-7.85H1518
				c-4.33,0-7.85,3.51-7.85,7.85v32.61C1510.15,1806.09,1513.66,1809.6,1518,1809.6z"/>
			<path style="fill:#B84C42;" d="M1365.8,1809.6h127.94c4.33,0,7.85-3.51,7.85-7.85v-32.61c0-4.33-3.51-7.85-7.85-7.85H1365.8
				c-4.33,0-7.85,3.51-7.85,7.85v32.61C1357.96,1806.09,1361.47,1809.6,1365.8,1809.6z"/>
			<path style="fill:#B84C42;" d="M1214.56,1809.6h127.94c4.33,0,7.85-3.51,7.85-7.85v-32.61c0-4.33-3.51-7.85-7.85-7.85h-127.94
				c-4.33,0-7.85,3.51-7.85,7.85v32.61C1206.71,1806.09,1210.23,1809.6,1214.56,1809.6z"/>
			<path style="fill:#B84C42;" d="M1063.32,1809.6h127.94c4.33,0,7.85-3.51,7.85-7.85v-32.61c0-4.33-3.51-7.85-7.85-7.85h-127.94
				c-4.33,0-7.85,3.51-7.85,7.85v32.61C1055.47,1806.09,1058.98,1809.6,1063.32,1809.6z"/>
			<path style="fill:#B84C42;" d="M912.07,1809.6h127.94c4.33,0,7.85-3.51,7.85-7.85v-32.61c0-4.33-3.51-7.85-7.85-7.85H912.07
				c-4.33,0-7.85,3.51-7.85,7.85v32.61C904.23,1806.09,907.74,1809.6,912.07,1809.6z"/>
			<path style="fill:#B84C42;" d="M760.83,1809.6h127.94c4.33,0,7.85-3.51,7.85-7.85v-32.61c0-4.33-3.51-7.85-7.85-7.85H760.83
				c-4.33,0-7.85,3.51-7.85,7.85v32.61C752.98,1806.09,756.5,1809.6,760.83,1809.6z"/>
			<path style="fill:#B84C42;" d="M609.59,1809.6h127.94c4.33,0,7.85-3.51,7.85-7.85v-32.61c0-4.33-3.51-7.85-7.85-7.85H609.59
				c-4.33,0-7.85,3.51-7.85,7.85v32.61C601.74,1806.09,605.25,1809.6,609.59,1809.6z"/>
			<path style="fill:#B84C42;" d="M458.34,1809.6h127.94c4.33,0,7.85-3.51,7.85-7.85v-32.61c0-4.33-3.51-7.85-7.85-7.85H458.34
				c-4.33,0-7.85,3.51-7.85,7.85v32.61C450.49,1806.09,454.01,1809.6,458.34,1809.6z"/>
			<path style="fill:#B84C42;" d="M307.1,1809.6h127.94c4.33,0,7.85-3.51,7.85-7.85v-32.61c0-4.33-3.51-7.85-7.85-7.85H307.1
				c-4.33,0-7.85,3.51-7.85,7.85v32.61C299.25,1806.09,302.76,1809.6,307.1,1809.6z"/>
			<path style="fill:#B84C42;" d="M2650.91,1754.42h55.11c4.33,0,7.85-3.51,7.85-7.85v-32.61c0-4.33-3.51-7.85-7.85-7.85h-55.11
				c-4.33,0-7.85,3.51-7.85,7.85v32.61C2643.06,1750.91,2646.58,1754.42,2650.91,1754.42z"/>
			<path style="fill:#B84C42;" d="M2499.67,1754.42h127.94c4.33,0,7.85-3.51,7.85-7.85v-32.61c0-4.33-3.51-7.85-7.85-7.85h-127.94
				c-4.33,0-7.85,3.51-7.85,7.85v32.61C2491.82,1750.91,2495.33,1754.42,2499.67,1754.42z"/>
			<path style="fill:#B84C42;" d="M2348.42,1754.42h127.94c4.33,0,7.85-3.51,7.85-7.85v-32.61c0-4.33-3.51-7.85-7.85-7.85h-127.94
				c-4.33,0-7.85,3.51-7.85,7.85v32.61C2340.58,1750.91,2344.09,1754.42,2348.42,1754.42z"/>
			<path style="fill:#B84C42;" d="M2197.18,1754.42h127.94c4.33,0,7.85-3.51,7.85-7.85v-32.61c0-4.33-3.51-7.85-7.85-7.85h-127.94
				c-4.33,0-7.85,3.51-7.85,7.85v32.61C2189.33,1750.91,2192.85,1754.42,2197.18,1754.42z"/>
			<path style="fill:#B84C42;" d="M2045.94,1754.42h127.94c4.33,0,7.85-3.51,7.85-7.85v-32.61c0-4.33-3.51-7.85-7.85-7.85h-127.94
				c-4.33,0-7.85,3.51-7.85,7.85v32.61C2038.09,1750.91,2041.6,1754.42,2045.94,1754.42z"/>
			<path style="fill:#B84C42;" d="M1894.69,1754.42h127.94c4.33,0,7.85-3.51,7.85-7.85v-32.61c0-4.33-3.51-7.85-7.85-7.85h-127.94
				c-4.33,0-7.85,3.51-7.85,7.85v32.61C1886.84,1750.91,1890.36,1754.42,1894.69,1754.42z"/>
			<path style="fill:#B84C42;" d="M1743.45,1754.42h127.94c4.33,0,7.85-3.51,7.85-7.85v-32.61c0-4.33-3.51-7.85-7.85-7.85h-127.94
				c-4.33,0-7.85,3.51-7.85,7.85v32.61C1735.6,1750.91,1739.11,1754.42,1743.45,1754.42z"/>
			<path style="fill:#B84C42;" d="M1592.2,1754.42h127.94c4.33,0,7.85-3.51,7.85-7.85v-32.61c0-4.33-3.51-7.85-7.85-7.85H1592.2
				c-4.33,0-7.85,3.51-7.85,7.85v32.61C1584.36,1750.91,1587.87,1754.42,1592.2,1754.42z"/>
			<path style="fill:#B84C42;" d="M1440.01,1754.42h127.94c4.33,0,7.85-3.51,7.85-7.85v-32.61c0-4.33-3.51-7.85-7.85-7.85h-127.94
				c-4.33,0-7.85,3.51-7.85,7.85v32.61C1432.16,1750.91,1435.68,1754.42,1440.01,1754.42z"/>
			<path style="fill:#B84C42;" d="M1288.77,1754.42h127.94c4.33,0,7.85-3.51,7.85-7.85v-32.61c0-4.33-3.51-7.85-7.85-7.85h-127.94
				c-4.33,0-7.85,3.51-7.85,7.85v32.61C1280.92,1750.91,1284.43,1754.42,1288.77,1754.42z"/>
			<path style="fill:#B84C42;" d="M1137.52,1754.42h127.94c4.33,0,7.85-3.51,7.85-7.85v-32.61c0-4.33-3.51-7.85-7.85-7.85h-127.94
				c-4.33,0-7.85,3.51-7.85,7.85v32.61C1129.68,1750.91,1133.19,1754.42,1137.52,1754.42z"/>
			<path style="fill:#B84C42;" d="M986.28,1754.42h127.94c4.33,0,7.85-3.51,7.85-7.85v-32.61c0-4.33-3.51-7.85-7.85-7.85H986.28
				c-4.33,0-7.85,3.51-7.85,7.85v32.61C978.43,1750.91,981.94,1754.42,986.28,1754.42z"/>
			<path style="fill:#B84C42;" d="M835.04,1754.42h127.94c4.33,0,7.85-3.51,7.85-7.85v-32.61c0-4.33-3.51-7.85-7.85-7.85H835.04
				c-4.33,0-7.85,3.51-7.85,7.85v32.61C827.19,1750.91,830.7,1754.42,835.04,1754.42z"/>
			<path style="fill:#B84C42;" d="M683.79,1754.42h127.94c4.33,0,7.85-3.51,7.85-7.85v-32.61c0-4.33-3.51-7.85-7.85-7.85H683.79
				c-4.33,0-7.85,3.51-7.85,7.85v32.61C675.94,1750.91,679.46,1754.42,683.79,1754.42z"/>
			<path style="fill:#B84C42;" d="M532.55,1754.42h127.94c4.33,0,7.85-3.51,7.85-7.85v-32.61c0-4.33-3.51-7.85-7.85-7.85H532.55
				c-4.33,0-7.85,3.51-7.85,7.85v32.61C524.7,1750.91,528.21,1754.42,532.55,1754.42z"/>
			<path style="fill:#B84C42;" d="M381.3,1754.42h127.94c4.33,0,7.85-3.51,7.85-7.85v-32.61c0-4.33-3.51-7.85-7.85-7.85H381.3
				c-4.33,0-7.85,3.51-7.85,7.85v32.61C373.46,1750.91,376.97,1754.42,381.3,1754.42z"/>
			<path style="fill:#B84C42;" d="M305.18,1754.42h55.11c4.33,0,7.85-3.51,7.85-7.85v-32.61c0-4.33-3.51-7.85-7.85-7.85h-55.11
				c-4.33,0-7.85,3.51-7.85,7.85v32.61C297.33,1750.91,300.84,1754.42,305.18,1754.42z"/>
			<path style="fill:#B84C42;" d="M2576.7,1698.29h127.94c4.33,0,7.85-3.51,7.85-7.85v-32.61c0-4.33-3.51-7.85-7.85-7.85H2576.7
				c-4.33,0-7.85,3.51-7.85,7.85v32.61C2568.86,1694.78,2572.37,1698.29,2576.7,1698.29z"/>
			<path style="fill:#B84C42;" d="M2425.46,1698.29h127.94c4.33,0,7.85-3.51,7.85-7.85v-32.61c0-4.33-3.51-7.85-7.85-7.85h-127.94
				c-4.33,0-7.85,3.51-7.85,7.85v32.61C2417.61,1694.78,2421.13,1698.29,2425.46,1698.29z"/>
			<path style="fill:#B84C42;" d="M2274.22,1698.29h127.94c4.33,0,7.85-3.51,7.85-7.85v-32.61c0-4.33-3.51-7.85-7.85-7.85h-127.94
				c-4.33,0-7.85,3.51-7.85,7.85v32.61C2266.37,1694.78,2269.88,1698.29,2274.22,1698.29z"/>
			<path style="fill:#B84C42;" d="M2122.97,1698.29h127.94c4.33,0,7.85-3.51,7.85-7.85v-32.61c0-4.33-3.51-7.85-7.85-7.85h-127.94
				c-4.33,0-7.85,3.51-7.85,7.85v32.61C2115.13,1694.78,2118.64,1698.29,2122.97,1698.29z"/>
			<path style="fill:#B84C42;" d="M1971.73,1698.29h127.94c4.33,0,7.85-3.51,7.85-7.85v-32.61c0-4.33-3.51-7.85-7.85-7.85h-127.94
				c-4.33,0-7.85,3.51-7.85,7.85v32.61C1963.88,1694.78,1967.4,1698.29,1971.73,1698.29z"/>
			<path style="fill:#B84C42;" d="M1820.49,1698.29h127.94c4.33,0,7.85-3.51,7.85-7.85v-32.61c0-4.33-3.51-7.85-7.85-7.85h-127.94
				c-4.33,0-7.85,3.51-7.85,7.85v32.61C1812.64,1694.78,1816.15,1698.29,1820.49,1698.29z"/>
			<path style="fill:#B84C42;" d="M1669.24,1698.29h127.94c4.33,0,7.85-3.51,7.85-7.85v-32.61c0-4.33-3.51-7.85-7.85-7.85h-127.94
				c-4.33,0-7.85,3.51-7.85,7.85v32.61C1661.4,1694.78,1664.91,1698.29,1669.24,1698.29z"/>
			<path style="fill:#B84C42;" d="M1518,1698.29h127.94c4.33,0,7.85-3.51,7.85-7.85v-32.61c0-4.33-3.51-7.85-7.85-7.85H1518
				c-4.33,0-7.85,3.51-7.85,7.85v32.61C1510.15,1694.78,1513.66,1698.29,1518,1698.29z"/>
			<path style="fill:#B84C42;" d="M1365.8,1698.29h127.94c4.33,0,7.85-3.51,7.85-7.85v-32.61c0-4.33-3.51-7.85-7.85-7.85H1365.8
				c-4.33,0-7.85,3.51-7.85,7.85v32.61C1357.96,1694.78,1361.47,1698.29,1365.8,1698.29z"/>
			<path style="fill:#B84C42;" d="M1214.56,1698.29h127.94c4.33,0,7.85-3.51,7.85-7.85v-32.61c0-4.33-3.51-7.85-7.85-7.85h-127.94
				c-4.33,0-7.85,3.51-7.85,7.85v32.61C1206.71,1694.78,1210.23,1698.29,1214.56,1698.29z"/>
			<path style="fill:#B84C42;" d="M1063.32,1698.29h127.94c4.33,0,7.85-3.51,7.85-7.85v-32.61c0-4.33-3.51-7.85-7.85-7.85h-127.94
				c-4.33,0-7.85,3.51-7.85,7.85v32.61C1055.47,1694.78,1058.98,1698.29,1063.32,1698.29z"/>
			<path style="fill:#B84C42;" d="M912.07,1698.29h127.94c4.33,0,7.85-3.51,7.85-7.85v-32.61c0-4.33-3.51-7.85-7.85-7.85H912.07
				c-4.33,0-7.85,3.51-7.85,7.85v32.61C904.23,1694.78,907.74,1698.29,912.07,1698.29z"/>
			<path style="fill:#B84C42;" d="M760.83,1698.29h127.94c4.33,0,7.85-3.51,7.85-7.85v-32.61c0-4.33-3.51-7.85-7.85-7.85H760.83
				c-4.33,0-7.85,3.51-7.85,7.85v32.61C752.98,1694.78,756.5,1698.29,760.83,1698.29z"/>
			<path style="fill:#B84C42;" d="M609.59,1698.29h127.94c4.33,0,7.85-3.51,7.85-7.85v-32.61c0-4.33-3.51-7.85-7.85-7.85H609.59
				c-4.33,0-7.85,3.51-7.85,7.85v32.61C601.74,1694.78,605.25,1698.29,609.59,1698.29z"/>
			<path style="fill:#B84C42;" d="M458.34,1698.29h127.94c4.33,0,7.85-3.51,7.85-7.85v-32.61c0-4.33-3.51-7.85-7.85-7.85H458.34
				c-4.33,0-7.85,3.51-7.85,7.85v32.61C450.49,1694.78,454.01,1698.29,458.34,1698.29z"/>
			<path style="fill:#B84C42;" d="M307.1,1698.29h127.94c4.33,0,7.85-3.51,7.85-7.85v-32.61c0-4.33-3.51-7.85-7.85-7.85H307.1
				c-4.33,0-7.85,3.51-7.85,7.85v32.61C299.25,1694.78,302.76,1698.29,307.1,1698.29z"/>
			<path style="fill:#B84C42;" d="M2650.91,1643.11h55.11c4.33,0,7.85-3.51,7.85-7.85v-32.61c0-4.33-3.51-7.85-7.85-7.85h-55.11
				c-4.33,0-7.85,3.51-7.85,7.85v32.61C2643.06,1639.6,2646.58,1643.11,2650.91,1643.11z"/>
			<path style="fill:#B84C42;" d="M2499.67,1643.11h127.94c4.33,0,7.85-3.51,7.85-7.85v-32.61c0-4.33-3.51-7.85-7.85-7.85h-127.94
				c-4.33,0-7.85,3.51-7.85,7.85v32.61C2491.82,1639.6,2495.33,1643.11,2499.67,1643.11z"/>
			<path style="fill:#B84C42;" d="M2348.42,1643.11h127.94c4.33,0,7.85-3.51,7.85-7.85v-32.61c0-4.33-3.51-7.85-7.85-7.85h-127.94
				c-4.33,0-7.85,3.51-7.85,7.85v32.61C2340.58,1639.6,2344.09,1643.11,2348.42,1643.11z"/>
			<path style="fill:#B84C42;" d="M2197.18,1643.11h127.94c4.33,0,7.85-3.51,7.85-7.85v-32.61c0-4.33-3.51-7.85-7.85-7.85h-127.94
				c-4.33,0-7.85,3.51-7.85,7.85v32.61C2189.33,1639.6,2192.85,1643.11,2197.18,1643.11z"/>
			<path style="fill:#B84C42;" d="M2045.94,1643.11h127.94c4.33,0,7.85-3.51,7.85-7.85v-32.61c0-4.33-3.51-7.85-7.85-7.85h-127.94
				c-4.33,0-7.85,3.51-7.85,7.85v32.61C2038.09,1639.6,2041.6,1643.11,2045.94,1643.11z"/>
			<path style="fill:#B84C42;" d="M1894.69,1643.11h127.94c4.33,0,7.85-3.51,7.85-7.85v-32.61c0-4.33-3.51-7.85-7.85-7.85h-127.94
				c-4.33,0-7.85,3.51-7.85,7.85v32.61C1886.84,1639.6,1890.36,1643.11,1894.69,1643.11z"/>
			<path style="fill:#B84C42;" d="M1743.45,1643.11h127.94c4.33,0,7.85-3.51,7.85-7.85v-32.61c0-4.33-3.51-7.85-7.85-7.85h-127.94
				c-4.33,0-7.85,3.51-7.85,7.85v32.61C1735.6,1639.6,1739.11,1643.11,1743.45,1643.11z"/>
			<path style="fill:#B84C42;" d="M1592.2,1643.11h127.94c4.33,0,7.85-3.51,7.85-7.85v-32.61c0-4.33-3.51-7.85-7.85-7.85H1592.2
				c-4.33,0-7.85,3.51-7.85,7.85v32.61C1584.36,1639.6,1587.87,1643.11,1592.2,1643.11z"/>
			<path style="fill:#B84C42;" d="M1440.01,1643.11h127.94c4.33,0,7.85-3.51,7.85-7.85v-32.61c0-4.33-3.51-7.85-7.85-7.85h-127.94
				c-4.33,0-7.85,3.51-7.85,7.85v32.61C1432.16,1639.6,1435.68,1643.11,1440.01,1643.11z"/>
			<path style="fill:#B84C42;" d="M1288.77,1643.11h127.94c4.33,0,7.85-3.51,7.85-7.85v-32.61c0-4.33-3.51-7.85-7.85-7.85h-127.94
				c-4.33,0-7.85,3.51-7.85,7.85v32.61C1280.92,1639.6,1284.43,1643.11,1288.77,1643.11z"/>
			<path style="fill:#B84C42;" d="M1137.52,1643.11h127.94c4.33,0,7.85-3.51,7.85-7.85v-32.61c0-4.33-3.51-7.85-7.85-7.85h-127.94
				c-4.33,0-7.85,3.51-7.85,7.85v32.61C1129.68,1639.6,1133.19,1643.11,1137.52,1643.11z"/>
			<path style="fill:#B84C42;" d="M986.28,1643.11h127.94c4.33,0,7.85-3.51,7.85-7.85v-32.61c0-4.33-3.51-7.85-7.85-7.85H986.28
				c-4.33,0-7.85,3.51-7.85,7.85v32.61C978.43,1639.6,981.94,1643.11,986.28,1643.11z"/>
			<path style="fill:#B84C42;" d="M835.04,1643.11h127.94c4.33,0,7.85-3.51,7.85-7.85v-32.61c0-4.33-3.51-7.85-7.85-7.85H835.04
				c-4.33,0-7.85,3.51-7.85,7.85v32.61C827.19,1639.6,830.7,1643.11,835.04,1643.11z"/>
			<path style="fill:#B84C42;" d="M683.79,1643.11h127.94c4.33,0,7.85-3.51,7.85-7.85v-32.61c0-4.33-3.51-7.85-7.85-7.85H683.79
				c-4.33,0-7.85,3.51-7.85,7.85v32.61C675.94,1639.6,679.46,1643.11,683.79,1643.11z"/>
			<path style="fill:#B84C42;" d="M532.55,1643.11h127.94c4.33,0,7.85-3.51,7.85-7.85v-32.61c0-4.33-3.51-7.85-7.85-7.85H532.55
				c-4.33,0-7.85,3.51-7.85,7.85v32.61C524.7,1639.6,528.21,1643.11,532.55,1643.11z"/>
			<path style="fill:#B84C42;" d="M381.3,1643.11h127.94c4.33,0,7.85-3.51,7.85-7.85v-32.61c0-4.33-3.51-7.85-7.85-7.85H381.3
				c-4.33,0-7.85,3.51-7.85,7.85v32.61C373.46,1639.6,376.97,1643.11,381.3,1643.11z"/>
			<path style="fill:#B84C42;" d="M305.18,1643.11h55.11c4.33,0,7.85-3.51,7.85-7.85v-32.61c0-4.33-3.51-7.85-7.85-7.85h-55.11
				c-4.33,0-7.85,3.51-7.85,7.85v32.61C297.33,1639.6,300.84,1643.11,305.18,1643.11z"/>
			<path style="fill:#B84C42;" d="M2576.7,1588.36h127.94c4.33,0,7.85-3.51,7.85-7.85v-32.61c0-4.33-3.51-7.85-7.85-7.85H2576.7
				c-4.33,0-7.85,3.51-7.85,7.85v32.61C2568.86,1584.84,2572.37,1588.36,2576.7,1588.36z"/>
			<path style="fill:#B84C42;" d="M2425.46,1588.36h127.94c4.33,0,7.85-3.51,7.85-7.85v-32.61c0-4.33-3.51-7.85-7.85-7.85h-127.94
				c-4.33,0-7.85,3.51-7.85,7.85v32.61C2417.61,1584.84,2421.13,1588.36,2425.46,1588.36z"/>
			<path style="fill:#B84C42;" d="M2274.22,1588.36h127.94c4.33,0,7.85-3.51,7.85-7.85v-32.61c0-4.33-3.51-7.85-7.85-7.85h-127.94
				c-4.33,0-7.85,3.51-7.85,7.85v32.61C2266.37,1584.84,2269.88,1588.36,2274.22,1588.36z"/>
			<path style="fill:#B84C42;" d="M2122.97,1588.36h127.94c4.33,0,7.85-3.51,7.85-7.85v-32.61c0-4.33-3.51-7.85-7.85-7.85h-127.94
				c-4.33,0-7.85,3.51-7.85,7.85v32.61C2115.13,1584.84,2118.64,1588.36,2122.97,1588.36z"/>
			<path style="fill:#B84C42;" d="M1971.73,1588.36h127.94c4.33,0,7.85-3.51,7.85-7.85v-32.61c0-4.33-3.51-7.85-7.85-7.85h-127.94
				c-4.33,0-7.85,3.51-7.85,7.85v32.61C1963.88,1584.84,1967.4,1588.36,1971.73,1588.36z"/>
			<path style="fill:#B84C42;" d="M1820.49,1588.36h127.94c4.33,0,7.85-3.51,7.85-7.85v-32.61c0-4.33-3.51-7.85-7.85-7.85h-127.94
				c-4.33,0-7.85,3.51-7.85,7.85v32.61C1812.64,1584.84,1816.15,1588.36,1820.49,1588.36z"/>
			<path style="fill:#B84C42;" d="M1669.24,1588.36h127.94c4.33,0,7.85-3.51,7.85-7.85v-32.61c0-4.33-3.51-7.85-7.85-7.85h-127.94
				c-4.33,0-7.85,3.51-7.85,7.85v32.61C1661.4,1584.84,1664.91,1588.36,1669.24,1588.36z"/>
			<path style="fill:#B84C42;" d="M1518,1588.36h127.94c4.33,0,7.85-3.51,7.85-7.85v-32.61c0-4.33-3.51-7.85-7.85-7.85H1518
				c-4.33,0-7.85,3.51-7.85,7.85v32.61C1510.15,1584.84,1513.66,1588.36,1518,1588.36z"/>
			<path style="fill:#B84C42;" d="M1365.8,1588.36h127.94c4.33,0,7.85-3.51,7.85-7.85v-32.61c0-4.33-3.51-7.85-7.85-7.85H1365.8
				c-4.33,0-7.85,3.51-7.85,7.85v32.61C1357.96,1584.84,1361.47,1588.36,1365.8,1588.36z"/>
			<path style="fill:#B84C42;" d="M1214.56,1588.36h127.94c4.33,0,7.85-3.51,7.85-7.85v-32.61c0-4.33-3.51-7.85-7.85-7.85h-127.94
				c-4.33,0-7.85,3.51-7.85,7.85v32.61C1206.71,1584.84,1210.23,1588.36,1214.56,1588.36z"/>
			<path style="fill:#B84C42;" d="M1063.32,1588.36h127.94c4.33,0,7.85-3.51,7.85-7.85v-32.61c0-4.33-3.51-7.85-7.85-7.85h-127.94
				c-4.33,0-7.85,3.51-7.85,7.85v32.61C1055.47,1584.84,1058.98,1588.36,1063.32,1588.36z"/>
			<path style="fill:#B84C42;" d="M912.07,1588.36h127.94c4.33,0,7.85-3.51,7.85-7.85v-32.61c0-4.33-3.51-7.85-7.85-7.85H912.07
				c-4.33,0-7.85,3.51-7.85,7.85v32.61C904.23,1584.84,907.74,1588.36,912.07,1588.36z"/>
			<path style="fill:#B84C42;" d="M760.83,1588.36h127.94c4.33,0,7.85-3.51,7.85-7.85v-32.61c0-4.33-3.51-7.85-7.85-7.85H760.83
				c-4.33,0-7.85,3.51-7.85,7.85v32.61C752.98,1584.84,756.5,1588.36,760.83,1588.36z"/>
			<path style="fill:#B84C42;" d="M609.59,1588.36h127.94c4.33,0,7.85-3.51,7.85-7.85v-32.61c0-4.33-3.51-7.85-7.85-7.85H609.59
				c-4.33,0-7.85,3.51-7.85,7.85v32.61C601.74,1584.84,605.25,1588.36,609.59,1588.36z"/>
			<path style="fill:#B84C42;" d="M458.34,1588.36h127.94c4.33,0,7.85-3.51,7.85-7.85v-32.61c0-4.33-3.51-7.85-7.85-7.85H458.34
				c-4.33,0-7.85,3.51-7.85,7.85v32.61C450.49,1584.84,454.01,1588.36,458.34,1588.36z"/>
			<path style="fill:#B84C42;" d="M307.1,1588.36h127.94c4.33,0,7.85-3.51,7.85-7.85v-32.61c0-4.33-3.51-7.85-7.85-7.85H307.1
				c-4.33,0-7.85,3.51-7.85,7.85v32.61C299.25,1584.84,302.76,1588.36,307.1,1588.36z"/>
			<path style="fill:#B84C42;" d="M2650.91,1533.18h55.11c4.33,0,7.85-3.51,7.85-7.85v-32.61c0-4.33-3.51-7.85-7.85-7.85h-55.11
				c-4.33,0-7.85,3.51-7.85,7.85v32.61C2643.06,1529.67,2646.58,1533.18,2650.91,1533.18z"/>
			<path style="fill:#B84C42;" d="M2499.67,1533.18h127.94c4.33,0,7.85-3.51,7.85-7.85v-32.61c0-4.33-3.51-7.85-7.85-7.85h-127.94
				c-4.33,0-7.85,3.51-7.85,7.85v32.61C2491.82,1529.67,2495.33,1533.18,2499.67,1533.18z"/>
			<path style="fill:#B84C42;" d="M2348.42,1533.18h127.94c4.33,0,7.85-3.51,7.85-7.85v-32.61c0-4.33-3.51-7.85-7.85-7.85h-127.94
				c-4.33,0-7.85,3.51-7.85,7.85v32.61C2340.58,1529.67,2344.09,1533.18,2348.42,1533.18z"/>
			<path style="fill:#B84C42;" d="M2197.18,1533.18h127.94c4.33,0,7.85-3.51,7.85-7.85v-32.61c0-4.33-3.51-7.85-7.85-7.85h-127.94
				c-4.33,0-7.85,3.51-7.85,7.85v32.61C2189.33,1529.67,2192.85,1533.18,2197.18,1533.18z"/>
			<path style="fill:#B84C42;" d="M2045.94,1533.18h127.94c4.33,0,7.85-3.51,7.85-7.85v-32.61c0-4.33-3.51-7.85-7.85-7.85h-127.94
				c-4.33,0-7.85,3.51-7.85,7.85v32.61C2038.09,1529.67,2041.6,1533.18,2045.94,1533.18z"/>
			<path style="fill:#B84C42;" d="M1894.69,1533.18h127.94c4.33,0,7.85-3.51,7.85-7.85v-32.61c0-4.33-3.51-7.85-7.85-7.85h-127.94
				c-4.33,0-7.85,3.51-7.85,7.85v32.61C1886.84,1529.67,1890.36,1533.18,1894.69,1533.18z"/>
			<path style="fill:#B84C42;" d="M1743.45,1533.18h127.94c4.33,0,7.85-3.51,7.85-7.85v-32.61c0-4.33-3.51-7.85-7.85-7.85h-127.94
				c-4.33,0-7.85,3.51-7.85,7.85v32.61C1735.6,1529.67,1739.11,1533.18,1743.45,1533.18z"/>
			<path style="fill:#B84C42;" d="M1592.2,1533.18h127.94c4.33,0,7.85-3.51,7.85-7.85v-32.61c0-4.33-3.51-7.85-7.85-7.85H1592.2
				c-4.33,0-7.85,3.51-7.85,7.85v32.61C1584.36,1529.67,1587.87,1533.18,1592.2,1533.18z"/>
			<path style="fill:#B84C42;" d="M1440.01,1533.18h127.94c4.33,0,7.85-3.51,7.85-7.85v-32.61c0-4.33-3.51-7.85-7.85-7.85h-127.94
				c-4.33,0-7.85,3.51-7.85,7.85v32.61C1432.16,1529.67,1435.68,1533.18,1440.01,1533.18z"/>
			<path style="fill:#B84C42;" d="M1288.77,1533.18h127.94c4.33,0,7.85-3.51,7.85-7.85v-32.61c0-4.33-3.51-7.85-7.85-7.85h-127.94
				c-4.33,0-7.85,3.51-7.85,7.85v32.61C1280.92,1529.67,1284.43,1533.18,1288.77,1533.18z"/>
			<path style="fill:#B84C42;" d="M1137.52,1533.18h127.94c4.33,0,7.85-3.51,7.85-7.85v-32.61c0-4.33-3.51-7.85-7.85-7.85h-127.94
				c-4.33,0-7.85,3.51-7.85,7.85v32.61C1129.68,1529.67,1133.19,1533.18,1137.52,1533.18z"/>
			<path style="fill:#B84C42;" d="M986.28,1533.18h127.94c4.33,0,7.85-3.51,7.85-7.85v-32.61c0-4.33-3.51-7.85-7.85-7.85H986.28
				c-4.33,0-7.85,3.51-7.85,7.85v32.61C978.43,1529.67,981.94,1533.18,986.28,1533.18z"/>
			<path style="fill:#B84C42;" d="M835.04,1533.18h127.94c4.33,0,7.85-3.51,7.85-7.85v-32.61c0-4.33-3.51-7.85-7.85-7.85H835.04
				c-4.33,0-7.85,3.51-7.85,7.85v32.61C827.19,1529.67,830.7,1533.18,835.04,1533.18z"/>
			<path style="fill:#B84C42;" d="M683.79,1533.18h127.94c4.33,0,7.85-3.51,7.85-7.85v-32.61c0-4.33-3.51-7.85-7.85-7.85H683.79
				c-4.33,0-7.85,3.51-7.85,7.85v32.61C675.94,1529.67,679.46,1533.18,683.79,1533.18z"/>
			<path style="fill:#B84C42;" d="M532.55,1533.18h127.94c4.33,0,7.85-3.51,7.85-7.85v-32.61c0-4.33-3.51-7.85-7.85-7.85H532.55
				c-4.33,0-7.85,3.51-7.85,7.85v32.61C524.7,1529.67,528.21,1533.18,532.55,1533.18z"/>
			<path style="fill:#B84C42;" d="M381.3,1533.18h127.94c4.33,0,7.85-3.51,7.85-7.85v-32.61c0-4.33-3.51-7.85-7.85-7.85H381.3
				c-4.33,0-7.85,3.51-7.85,7.85v32.61C373.46,1529.67,376.97,1533.18,381.3,1533.18z"/>
			<path style="fill:#B84C42;" d="M305.18,1533.18h55.11c4.33,0,7.85-3.51,7.85-7.85v-32.61c0-4.33-3.51-7.85-7.85-7.85h-55.11
				c-4.33,0-7.85,3.51-7.85,7.85v32.61C297.33,1529.67,300.84,1533.18,305.18,1533.18z"/>
			<path style="fill:#B84C42;" d="M2576.7,1477.05h127.94c4.33,0,7.85-3.51,7.85-7.85v-32.61c0-4.33-3.51-7.85-7.85-7.85H2576.7
				c-4.33,0-7.85,3.51-7.85,7.85v32.61C2568.86,1473.54,2572.37,1477.05,2576.7,1477.05z"/>
			<path style="fill:#B84C42;" d="M2425.46,1477.05h127.94c4.33,0,7.85-3.51,7.85-7.85v-32.61c0-4.33-3.51-7.85-7.85-7.85h-127.94
				c-4.33,0-7.85,3.51-7.85,7.85v32.61C2417.61,1473.54,2421.13,1477.05,2425.46,1477.05z"/>
			<path style="fill:#B84C42;" d="M2274.22,1477.05h127.94c4.33,0,7.85-3.51,7.85-7.85v-32.61c0-4.33-3.51-7.85-7.85-7.85h-127.94
				c-4.33,0-7.85,3.51-7.85,7.85v32.61C2266.37,1473.54,2269.88,1477.05,2274.22,1477.05z"/>
			<path style="fill:#B84C42;" d="M2122.97,1477.05h127.94c4.33,0,7.85-3.51,7.85-7.85v-32.61c0-4.33-3.51-7.85-7.85-7.85h-127.94
				c-4.33,0-7.85,3.51-7.85,7.85v32.61C2115.13,1473.54,2118.64,1477.05,2122.97,1477.05z"/>
			<path style="fill:#B84C42;" d="M1971.73,1477.05h127.94c4.33,0,7.85-3.51,7.85-7.85v-32.61c0-4.33-3.51-7.85-7.85-7.85h-127.94
				c-4.33,0-7.85,3.51-7.85,7.85v32.61C1963.88,1473.54,1967.4,1477.05,1971.73,1477.05z"/>
			<path style="fill:#B84C42;" d="M1820.49,1477.05h127.94c4.33,0,7.85-3.51,7.85-7.85v-32.61c0-4.33-3.51-7.85-7.85-7.85h-127.94
				c-4.33,0-7.85,3.51-7.85,7.85v32.61C1812.64,1473.54,1816.15,1477.05,1820.49,1477.05z"/>
			<path style="fill:#B84C42;" d="M1669.24,1477.05h127.94c4.33,0,7.85-3.51,7.85-7.85v-32.61c0-4.33-3.51-7.85-7.85-7.85h-127.94
				c-4.33,0-7.85,3.51-7.85,7.85v32.61C1661.4,1473.54,1664.91,1477.05,1669.24,1477.05z"/>
			<path style="fill:#B84C42;" d="M1518,1477.05h127.94c4.33,0,7.85-3.51,7.85-7.85v-32.61c0-4.33-3.51-7.85-7.85-7.85H1518
				c-4.33,0-7.85,3.51-7.85,7.85v32.61C1510.15,1473.54,1513.66,1477.05,1518,1477.05z"/>
			<path style="fill:#B84C42;" d="M1365.8,1477.05h127.94c4.33,0,7.85-3.51,7.85-7.85v-32.61c0-4.33-3.51-7.85-7.85-7.85H1365.8
				c-4.33,0-7.85,3.51-7.85,7.85v32.61C1357.96,1473.54,1361.47,1477.05,1365.8,1477.05z"/>
			<path style="fill:#B84C42;" d="M1214.56,1477.05h127.94c4.33,0,7.85-3.51,7.85-7.85v-32.61c0-4.33-3.51-7.85-7.85-7.85h-127.94
				c-4.33,0-7.85,3.51-7.85,7.85v32.61C1206.71,1473.54,1210.23,1477.05,1214.56,1477.05z"/>
			<path style="fill:#B84C42;" d="M1063.32,1477.05h127.94c4.33,0,7.85-3.51,7.85-7.85v-32.61c0-4.33-3.51-7.85-7.85-7.85h-127.94
				c-4.33,0-7.85,3.51-7.85,7.85v32.61C1055.47,1473.54,1058.98,1477.05,1063.32,1477.05z"/>
			<path style="fill:#B84C42;" d="M912.07,1477.05h127.94c4.33,0,7.85-3.51,7.85-7.85v-32.61c0-4.33-3.51-7.85-7.85-7.85H912.07
				c-4.33,0-7.85,3.51-7.85,7.85v32.61C904.23,1473.54,907.74,1477.05,912.07,1477.05z"/>
			<path style="fill:#B84C42;" d="M760.83,1477.05h127.94c4.33,0,7.85-3.51,7.85-7.85v-32.61c0-4.33-3.51-7.85-7.85-7.85H760.83
				c-4.33,0-7.85,3.51-7.85,7.85v32.61C752.98,1473.54,756.5,1477.05,760.83,1477.05z"/>
			<path style="fill:#B84C42;" d="M609.59,1477.05h127.94c4.33,0,7.85-3.51,7.85-7.85v-32.61c0-4.33-3.51-7.85-7.85-7.85H609.59
				c-4.33,0-7.85,3.51-7.85,7.85v32.61C601.74,1473.54,605.25,1477.05,609.59,1477.05z"/>
			<path style="fill:#B84C42;" d="M458.34,1477.05h127.94c4.33,0,7.85-3.51,7.85-7.85v-32.61c0-4.33-3.51-7.85-7.85-7.85H458.34
				c-4.33,0-7.85,3.51-7.85,7.85v32.61C450.49,1473.54,454.01,1477.05,458.34,1477.05z"/>
			<path style="fill:#B84C42;" d="M307.1,1477.05h127.94c4.33,0,7.85-3.51,7.85-7.85v-32.61c0-4.33-3.51-7.85-7.85-7.85H307.1
				c-4.33,0-7.85,3.51-7.85,7.85v32.61C299.25,1473.54,302.76,1477.05,307.1,1477.05z"/>
			<path style="fill:#B84C42;" d="M2650.91,1421.87h55.11c4.33,0,7.85-3.51,7.85-7.85v-32.61c0-4.33-3.51-7.85-7.85-7.85h-55.11
				c-4.33,0-7.85,3.51-7.85,7.85v32.61C2643.06,1418.36,2646.58,1421.87,2650.91,1421.87z"/>
			<path style="fill:#B84C42;" d="M2499.67,1421.87h127.94c4.33,0,7.85-3.51,7.85-7.85v-32.61c0-4.33-3.51-7.85-7.85-7.85h-127.94
				c-4.33,0-7.85,3.51-7.85,7.85v32.61C2491.82,1418.36,2495.33,1421.87,2499.67,1421.87z"/>
			<path style="fill:#B84C42;" d="M2348.42,1421.87h127.94c4.33,0,7.85-3.51,7.85-7.85v-32.61c0-4.33-3.51-7.85-7.85-7.85h-127.94
				c-4.33,0-7.85,3.51-7.85,7.85v32.61C2340.58,1418.36,2344.09,1421.87,2348.42,1421.87z"/>
			<path style="fill:#B84C42;" d="M2197.18,1421.87h127.94c4.33,0,7.85-3.51,7.85-7.85v-32.61c0-4.33-3.51-7.85-7.85-7.85h-127.94
				c-4.33,0-7.85,3.51-7.85,7.85v32.61C2189.33,1418.36,2192.85,1421.87,2197.18,1421.87z"/>
			<path style="fill:#B84C42;" d="M2045.94,1421.87h127.94c4.33,0,7.85-3.51,7.85-7.85v-32.61c0-4.33-3.51-7.85-7.85-7.85h-127.94
				c-4.33,0-7.85,3.51-7.85,7.85v32.61C2038.09,1418.36,2041.6,1421.87,2045.94,1421.87z"/>
			<path style="fill:#B84C42;" d="M1894.69,1421.87h127.94c4.33,0,7.85-3.51,7.85-7.85v-32.61c0-4.33-3.51-7.85-7.85-7.85h-127.94
				c-4.33,0-7.85,3.51-7.85,7.85v32.61C1886.84,1418.36,1890.36,1421.87,1894.69,1421.87z"/>
			<path style="fill:#B84C42;" d="M1743.45,1421.87h127.94c4.33,0,7.85-3.51,7.85-7.85v-32.61c0-4.33-3.51-7.85-7.85-7.85h-127.94
				c-4.33,0-7.85,3.51-7.85,7.85v32.61C1735.6,1418.36,1739.11,1421.87,1743.45,1421.87z"/>
			<path style="fill:#B84C42;" d="M1592.2,1421.87h127.94c4.33,0,7.85-3.51,7.85-7.85v-32.61c0-4.33-3.51-7.85-7.85-7.85H1592.2
				c-4.33,0-7.85,3.51-7.85,7.85v32.61C1584.36,1418.36,1587.87,1421.87,1592.2,1421.87z"/>
			<path style="fill:#B84C42;" d="M1440.01,1421.87h127.94c4.33,0,7.85-3.51,7.85-7.85v-32.61c0-4.33-3.51-7.85-7.85-7.85h-127.94
				c-4.33,0-7.85,3.51-7.85,7.85v32.61C1432.16,1418.36,1435.68,1421.87,1440.01,1421.87z"/>
			<polygon style="fill:#B84C42;" points="284.13,1342.19 284.13,1342.19 284.13,1342.19 284.13,1342.19 			"/>
		</g>
		<path style="fill:#283250;" d="M2762.25,1812.63H235.75c-1.53,0-2.78-1.25-2.78-2.78l0,0c0-1.53,1.25-2.78,2.78-2.78h2526.51
			c1.53,0,2.78,1.25,2.78,2.78l0,0C2765.03,1811.38,2763.78,1812.63,2762.25,1812.63z"/>
	</g>
</g>
</svg>
