<svg id="Capa_1" enable-background="new 0 0 512 512" height="512" viewBox="0 0 512 512" width="512" xmlns="http://www.w3.org/2000/svg" xmlns:xlink="http://www.w3.org/1999/xlink"><linearGradient id="SVGID_1_" gradientUnits="userSpaceOnUse" x1="385.012" x2="176.261" y1="-87.941" y2="616.594"><stop offset=".0569" stop-color="#fff" stop-opacity="0"/><stop offset=".2544" stop-color="#eef" stop-opacity=".302"/><stop offset=".5092" stop-color="#dedeff" stop-opacity=".691"/><stop offset=".712" stop-color="#d9d9ff"/></linearGradient><g><g><path d="m18.465 413.229c-49.534 53.011 11.593 80.357 54.458 50.987 74.919-62.368 132.227-172.679 170.919-175.726 59.542 5.995 100.798 106.357 168.345 91.449 12.866-3.74 22.998-12.959 32.734-24.324 120.032-137.632 62.335-141.817-42.765-234.531-96.041-77.44-113.619-118.93-183.798-66.2-66.307 49.82 9.046 94.382-199.893 358.345z" fill="url(#SVGID_1_)"/></g><g><g><g><g><path d="m428.631 68.548c-2.059-.613-4.227-.942-6.483-.942l-283.411-.011c-12.606 0-22.824 10.229-22.824 22.824v337.828h-37.143c-6.297 0-11.412 5.103-11.412 11.401v18.257c0 12.605 10.218 22.823 22.813 22.823h282.313c12.595 0 22.813-10.218 22.813-22.812v-332.113h38.263c6.297 0 11.401-5.104 11.401-11.401v-23.984c-.001-10.338-6.89-19.078-16.33-21.87z" fill="#00c" opacity=".1"/><g><g><g><g><g><g><path d="m444.96 64.906v23.984c0 6.297-5.104 11.401-11.401 11.401h-49.436v-35.385c0-12.595-10.218-22.813-22.824-22.813h60.848c2.256 0 4.424.329 6.483.942 9.441 2.793 16.33 11.533 16.33 21.871z" fill="#ffd6bb"/><path d="m418.12 42.083c-12.605 0-22.823 10.229-22.823 22.824v367.496c0 12.595-10.218 22.812-22.813 22.812h-256.571v-390.309c0-12.595 10.218-22.824 22.824-22.824h279.383z" fill="#fff3ee"/></g></g></g></g><g><path d="m369.554 455.215h-279.384c-12.595 0-22.813-10.218-22.813-22.823v-18.257c0-6.297 5.115-11.401 11.412-11.401h256.56c6.297 0 11.412 5.103 11.412 11.401v18.257c0 12.605 10.218 22.823 22.813 22.823z" fill="#ffd6bb"/><g fill="#00c"><path d="m422.146 37.093h-162.481c-2.762 0-5 2.239-5 5s2.238 5 5 5h137.098c-4.038 4.83-6.471 11.044-6.471 17.817v233.598c0 2.761 2.238 5 5 5s5-2.239 5-5v-193.212h33.263c9.048 0 16.408-7.361 16.408-16.408v-23.978c0-15.338-12.479-27.817-27.817-27.817zm17.817 51.795c0 3.534-2.875 6.408-6.408 6.408h-33.263v-30.386c0-9.824 7.993-17.817 17.817-17.817h4.037c9.824 0 17.816 7.993 17.816 17.817v23.978z"/><path d="m395.292 327.332c-2.762 0-5 2.239-5 5v100.065c0 9.824-7.992 17.816-17.816 17.816h-2.957c-9.806-.021-17.778-8.004-17.778-17.815v-18.253c0-9.047-7.361-16.408-16.409-16.408h-214.422v-332.827c0-9.824 7.993-17.817 17.817-17.817h87.113c2.762 0 5-2.239 5-5s-2.238-5-5-5h-87.113c-15.339 0-27.817 12.479-27.817 27.817v332.827h-32.142c-9.048 0-16.408 7.361-16.408 16.408v18.253c0 15.338 12.479 27.817 27.816 27.817l282.3-.002c15.338 0 27.816-12.479 27.816-27.816v-100.065c0-2.761-2.238-5-5-5zm-322.933 105.066v-18.253c0-3.534 2.875-6.408 6.408-6.408h256.564c3.534 0 6.409 2.875 6.409 6.408v18.253c0 6.772 2.432 12.986 6.469 17.815l-258.035.002c-9.822 0-17.815-7.993-17.815-17.817z"/></g></g></g></g></g></g><path d="m438.271 438.224c-1.279 0-2.56-.488-3.535-1.464l-4.965-4.964-4.965 4.964c-1.951 1.952-5.119 1.952-7.07 0-1.953-1.953-1.953-5.119 0-7.071l8.5-8.5c1.951-1.952 5.119-1.952 7.07 0l8.5 8.5c1.953 1.953 1.953 5.119 0 7.071-.975.976-2.255 1.464-3.535 1.464z" fill="#4d4dff"/><path d="m84.451 301.923c-1.031 0-2.063-.318-2.938-.955l-3.242-2.355-3.24 2.355c-1.754 1.273-4.126 1.273-5.878 0-1.753-1.273-2.486-3.53-1.816-5.59l1.237-3.811-3.241-2.355c-1.753-1.273-2.486-3.53-1.816-5.59.669-2.06 2.589-3.455 4.755-3.455h4.007l1.238-3.811c.669-2.06 2.589-3.455 4.755-3.455s4.086 1.395 4.755 3.455l1.239 3.811h4.006c2.166 0 4.086 1.395 4.755 3.455.67 2.06-.063 4.317-1.815 5.59l-3.241 2.355 1.237 3.811c.67 2.06-.063 4.317-1.816 5.59-.878.637-1.91.955-2.941.955z" fill="#4d4dff"/><path d="m435.951 158.423c-1.031 0-2.063-.318-2.939-.955l-3.24-2.355-3.242 2.355c-1.752 1.273-4.125 1.273-5.877 0-1.753-1.273-2.486-3.53-1.816-5.59l1.237-3.811-3.241-2.355c-1.752-1.273-2.485-3.53-1.815-5.59.669-2.06 2.589-3.455 4.755-3.455h4.006l1.239-3.811c.669-2.06 2.589-3.455 4.755-3.455 2.166 0 4.086 1.395 4.755 3.455l1.238 3.81h4.007c2.166 0 4.086 1.395 4.755 3.455.67 2.06-.063 4.317-1.815 5.59l-3.242 2.355 1.237 3.811c.67 2.06-.063 4.317-1.816 5.59-.878.638-1.91.956-2.941.956z" fill="#ff4d4d"/><path d="m91.669 252.701c-1.279 0-2.56-.488-3.535-1.464l-4.965-4.964-4.965 4.964c-1.951 1.952-5.119 1.952-7.07 0-1.953-1.953-1.953-5.119 0-7.071l8.5-8.5c1.951-1.952 5.119-1.952 7.07 0l8.5 8.5c1.953 1.953 1.953 5.119 0 7.071-.975.976-2.256 1.464-3.535 1.464z" fill="#ff9d33"/><path d="m456.699 396.786c-1.279 0-2.56-.488-3.535-1.464l-4.965-4.964-4.965 4.964c-1.951 1.952-5.119 1.952-7.07 0-1.953-1.953-1.953-5.119 0-7.071l8.5-8.5c1.951-1.952 5.119-1.952 7.07 0l8.5 8.5c1.953 1.953 1.953 5.119 0 7.071-.975.976-2.255 1.464-3.535 1.464z" fill="#ff4d4d"/><g><g><path d="m355.492 88.099h-198.984c-2.762 0-5-2.239-5-5s2.238-5 5-5h198.985c2.762 0 5 2.239 5 5s-2.239 5-5.001 5z" fill="#ffab66"/></g><g><path d="m355.492 108.878h-198.984c-2.762 0-5-2.239-5-5s2.238-5 5-5h198.985c2.762 0 5 2.239 5 5s-2.239 5-5.001 5z" fill="#ffab66"/></g><g><path d="m355.492 129.656h-198.984c-2.762 0-5-2.239-5-5s2.238-5 5-5h198.985c2.762 0 5 2.239 5 5s-2.239 5-5.001 5z" fill="#ffab66"/></g><g><path d="m355.492 150.435h-198.984c-2.762 0-5-2.239-5-5s2.238-5 5-5h198.985c2.762 0 5 2.239 5 5s-2.239 5-5.001 5z" fill="#ffab66"/></g></g><path d="m242.562 293.359c0-25.216-20.442-45.658-45.657-45.658-25.216 0-45.658 20.442-45.658 45.658 0 14.279 6.558 27.023 16.823 35.395v55.87c0 4.08 4.63 6.44 7.94 4.05l20.89-15.14 20.9 15.14c3.31 2.39 7.94.03 7.94-4.05v-55.871c10.264-8.372 16.822-21.116 16.822-35.394z" fill="#ffe8dc"/><g><g><path d="m355.492 190.229h-40.811c-2.762 0-5-2.239-5-5s2.238-5 5-5h40.811c2.762 0 5 2.239 5 5s-2.238 5-5 5z" fill="#ff4d4d"/></g><g><path d="m355.492 208.431h-40.811c-2.762 0-5-2.239-5-5s2.238-5 5-5h40.811c2.762 0 5 2.239 5 5s-2.238 5-5 5z" fill="#ff4d4d"/></g><g><path d="m355.492 237.175h-86.732c-2.762 0-5-2.239-5-5s2.238-5 5-5h86.733c2.762 0 5 2.239 5 5s-2.239 5-5.001 5z" fill="#ffab66"/></g></g><g><g><path d="m225.74 304.112v66.91c0 4.08-4.63 6.44-7.94 4.05l-20.9-15.14-20.89 15.14c-3.31 2.39-7.94.03-7.94-4.05v-66.91z" fill="#ff4d4d"/><path d="m225.74 304.112v24.74c-8.4 5.15-18.28 8.13-28.84 8.13-10.55 0-20.43-2.97-28.83-8.12v-24.75z" fill="#ff2c2c"/><g><circle cx="196.905" cy="279.756" fill="#ff8b00" r="45.658"/></g><g><circle cx="196.905" cy="279.756" fill="#ff9d33" r="36.14"/></g></g><path d="m199.262 254.769 4.997 15.38h16.172c2.402 0 3.4 3.073 1.457 4.485l-13.083 9.506 4.997 15.38c.742 2.284-1.872 4.183-3.815 2.772l-13.083-9.506-13.083 9.506c-1.943 1.412-4.557-.488-3.815-2.772l4.997-15.38-13.083-9.506c-1.943-1.412-.944-4.485 1.457-4.485h16.172l4.997-15.38c.743-2.284 3.974-2.284 4.716 0z" fill="#fff3ee"/></g></g><g fill="#8383ff"><path d="m321.607 371.029v-14.016c0-2.762 2.239-5 5-5s5 2.238 5 5v14.016c0 2.762-2.239 5-5 5s-5-2.238-5-5z"/><path d="m300.8 371.029v-14.016c0-2.762 2.239-5 5-5s5 2.238 5 5v14.016c0 2.762-2.239 5-5 5s-5-2.238-5-5z"/><path d="m342.414 371.029v-14.016c0-2.762 2.239-5 5-5s5 2.238 5 5v14.016c0 2.762-2.239 5-5 5s-5-2.238-5-5z"/></g></g></g></svg>