<?xml version="1.0"?>
<svg xmlns="http://www.w3.org/2000/svg" viewBox="0 0 64 64" width="512" height="512"><g id="Blueprint-plan-construction"><rect x="17" y="53" width="30" height="4" style="fill:#9bc9ff"/><path d="M48.86,9,49,42a6,6,0,0,1,12,0v7H3V9ZM43,22V19L28,13,13,19v3h4V40H39V22Z" style="fill:#9bc9ff"/><path d="M61.92,9A6.993,6.993,0,0,0,48.3,8H3A1,1,0,0,0,2,9V49a1,1,0,0,0,1,1H61a1,1,0,0,0,1-1V9ZM60,48H4V10H6v6H8V10H48V42a1,1,0,0,0,2,0,5,5,0,0,1,10,0Zm0-10.889A6.984,6.984,0,0,0,50,37.1V10a5,5,0,0,1,10,0Z" style="fill:#006df0"/><path d="M43.371,18.071l-15-6a1,1,0,0,0-.742,0l-15,6A1,1,0,0,0,12,19v3a1,1,0,0,0,1,1h3V40a1,1,0,0,0,1,1H39a1,1,0,0,0,1-1V23h3a1,1,0,0,0,1-1V19A1,1,0,0,0,43.371,18.071ZM26,39V34h4v5Zm12,0H32V33a1,1,0,0,0-1-1H25a1,1,0,0,0-1,1v6H18V23H38Zm4-18H14V19.677l14-5.6,14,5.6Z" style="fill:#006df0"/><rect x="21" y="43" width="14" height="2" style="fill:#006df0"/><path d="M51,52H17a.993.993,0,0,0-.37.075v0l-.018.007h0l-4.981,1.992a1,1,0,0,0,0,1.858l4.981,1.992h0l.018.007v0A.993.993,0,0,0,17,58H46v1H40v2h7a1,1,0,0,0,1-1V58h3a1,1,0,0,0,1-1V53A1,1,0,0,0,51,52ZM16,54.477v1.046L14.692,55ZM18,54H46v2H18Zm32,2H48V54h2Z" style="fill:#006df0"/><rect x="6" y="18" width="2" height="2" style="fill:#006df0"/></g></svg>
