<?xml version="1.0"?>
<svg xmlns="http://www.w3.org/2000/svg" viewBox="0 0 64 64" width="512" height="512"><path d="m3 3h58v58h-58z" fill="#5eb8ab"/><path d="m23 3c0 6.07513 2.92487 11 9 11h2a8 8 0 0 1 0 16h-3c-5.2467 0-8 4.2533-8 9.5a9.5 9.5 0 0 0 9.5 9.5h28.5v-46z" fill="#d3ac5c"/><path d="m53 7h-4l-2 4 2 4h4l2-4z" fill="#60a867"/><path d="m33 37h6v6h-6z" fill="#db735c"/><path d="m32 18-3 6h6z" fill="#eeeeed"/><circle cx="11" cy="11" fill="#db735c" r="4"/><path d="m28 53h2v2h-2z"/><path d="m32 53h2v2h-2z"/><path d="m36 53h2v2h-2z"/><path d="m40 53h2v2h-2z"/><path d="m44 53h2v2h-2z"/><path d="m48 53h2v2h-2z"/><path d="m52 53h2v2h-2z"/><path d="m56 53h2v2h-2z"/><path d="m24.95 50.293-2.121 2.121-2.122-2.121-1.414 1.414 2.121 2.121-2.121 2.122 1.414 1.414 2.122-2.122 2.121 2.122 1.414-1.414-2.121-2.122 2.121-2.121z"/><path d="m14 49h4v2h-4z"/><path d="m14 43h2v4h-2z"/><path d="m14 37h2v4h-2z"/><path d="m14 31h2v4h-2z"/><path d="m18 31h4v2h-4z"/><path d="m20 25h2v4h-2z"/><path d="m18 21h4v2h-4z"/><path d="m12 21h4v2h-4z"/><path d="m6 21h4v2h-4z"/><path d="m48.10547 15.44727a1.0004 1.0004 0 0 0 .89453.55273h4a1.0004 1.0004 0 0 0 .89453-.55273l2-4a1.00109 1.00109 0 0 0 0-.89454l-2-4a1.0004 1.0004 0 0 0 -.89453-.55273h-4a1.0004 1.0004 0 0 0 -.89453.55273l-2 4a1.00109 1.00109 0 0 0 0 .89454zm1.51269-7.44727h2.76368l1.5 3-1.5 3h-2.76368l-1.5-3z"/><path d="m55 28h-2v3h-3v2h3v3h2v-3h3v-2h-3z"/><path d="m39 36h-6a.99974.99974 0 0 0 -1 1v6a.99974.99974 0 0 0 1 1h6a.99974.99974 0 0 0 1-1v-6a.99974.99974 0 0 0 -1-1zm-1 6h-4v-4h4z"/><path d="m29 25h6a1.00009 1.00009 0 0 0 .89453-1.44727l-3-6a1.04127 1.04127 0 0 0 -1.78906 0l-3 6a1.00009 1.00009 0 0 0 .89453 1.44727zm3-4.76416 1.38184 2.76416h-2.76368z"/><path d="m16 11a5 5 0 1 0 -5 5 5.00588 5.00588 0 0 0 5-5zm-5 3a3 3 0 1 1 3-3 3.00328 3.00328 0 0 1 -3 3z"/><path d="m61 2h-58a.99974.99974 0 0 0 -1 1v58a.99974.99974 0 0 0 1 1h58a.99974.99974 0 0 0 1-1v-58a.99974.99974 0 0 0 -1-1zm-1 46h-27.5a8.50982 8.50982 0 0 1 -8.5-8.5c0-3.9209 1.833-8.5 7-8.5h3a9 9 0 0 0 0-18h-2c-5.49286 0-7.69067-4.47974-7.96729-9h35.96729zm-56 12v-56h18.03406c.34631 6.71411 4.17494 11 9.96594 11h2a7 7 0 0 1 0 14h-3c-5.38281 0-9 4.21973-9 10.5a10.5118 10.5118 0 0 0 10.5 10.5h27.5v10z"/></svg>
